<?xml version="1.0" encoding="utf-8"?>
<!-- Generator: Adobe Illustrator 15.0.0, SVG Export Plug-In . SVG Version: 6.00 Build 0)  -->
<!DOCTYPE svg PUBLIC "-//W3C//DTD SVG 1.1//EN" "http://www.w3.org/Graphics/SVG/1.1/DTD/svg11.dtd">
<svg version="1.1" xmlns="http://www.w3.org/2000/svg" xmlns:xlink="http://www.w3.org/1999/xlink" x="0px" y="0px"
	 width="753.484px" height="309.572px" viewBox="0 0 753.484 309.572" enable-background="new 0 0 753.484 309.572"
	 xml:space="preserve">
<g id="LaserCut">
	<polyline fill="none" stroke="#000000" stroke-width="0.25" points="31.472,293.808 29.011,293.559 26.625,292.819 24.385,291.615 
		22.361,289.979 20.615,287.963 19.198,285.627 18.155,283.042 17.514,280.287 17.299,277.445 17.299,41.087 17.514,38.246 
		18.155,35.49 19.198,32.905 20.615,30.569 22.361,28.553 24.385,26.917 26.625,25.713 29.011,24.973 31.472,24.724 318.876,24.724 
		321.337,24.973 323.724,25.713 325.962,26.917 327.988,28.553 329.734,30.569 331.152,32.905 332.195,35.49 332.833,38.246 
		333.05,41.087 333.05,277.445 332.875,280.005 332.355,282.502 331.505,284.875 330.343,287.063 328.9,289.014 327.208,290.683 
		325.312,292.024 323.255,293.006 321.093,293.605 318.876,293.808 31.472,293.808 	"/>
	<g>
		<polygon fill="none" stroke="#000000" stroke-width="0.25" points="603.798,256.497 603.71,257.479 603.455,258.436 
			603.039,259.332 602.472,260.141 601.771,260.839 600.964,261.405 600.067,261.823 599.112,262.081 598.129,262.166 
			559.316,262.166 558.433,262.237 557.564,262.444 556.742,262.784 555.985,263.249 555.309,263.827 550.711,268.424 
			546.441,272.694 545.765,273.272 545.008,273.737 544.186,274.077 543.317,274.284 542.434,274.355 418.944,274.355 
			418.058,274.284 417.19,274.077 416.372,273.737 415.611,273.272 414.934,272.694 411.383,269.141 406.398,264.159 
			405.82,263.481 405.355,262.725 405.016,261.903 404.809,261.038 404.737,260.151 404.737,231.834 404.826,230.852 
			405.081,229.897 405.498,229 406.064,228.19 406.765,227.493 407.573,226.925 408.469,226.508 409.424,226.25 410.407,226.166 
			420.675,226.166 421.562,226.237 422.426,226.444 423.248,226.784 424.008,227.249 424.683,227.827 431.71,234.852 
			432.384,235.429 433.144,235.895 433.966,236.235 434.831,236.442 435.718,236.512 528.842,236.512 529.726,236.442 
			530.594,236.235 531.412,235.895 532.172,235.429 532.85,234.852 539.874,227.827 540.552,227.249 541.309,226.784 
			542.131,226.444 542.994,226.237 543.882,226.166 598.129,226.166 599.112,226.25 600.067,226.508 600.964,226.925 
			601.771,227.493 602.472,228.19 603.039,229 603.455,229.897 603.71,230.852 603.798,231.834 603.798,256.497 		"/>
		<path fill="none" stroke="#000000" stroke-width="0.25" stroke-linecap="round" stroke-linejoin="round" d="M444.744,252.358
			c0-5.727,4.649-10.375,10.377-10.375s10.377,4.648,10.377,10.375c0,5.728-4.649,10.377-10.377,10.377
			S444.744,258.085,444.744,252.358L444.744,252.358z"/>
	</g>
	<g>
		<polygon fill="none" stroke="#000000" stroke-width="0.25" points="421.417,114.799 421.333,113.815 421.333,89.154 
			421.417,88.167 421.675,87.215 422.093,86.319 422.659,85.508 423.356,84.809 424.167,84.244 425.063,83.824 426.019,83.569 
			427.001,83.484 461.595,83.484 462.483,83.552 463.347,83.759 463.464,83.809 464.169,84.103 464.929,84.567 465.606,85.144 
			468.963,88.502 469.641,89.081 470.397,89.545 471.219,89.885 472.084,90.092 472.971,90.164 473.858,90.092 474.723,89.885 
			475.545,89.545 476.305,89.081 476.979,88.502 480.338,85.144 481.016,84.567 481.772,84.103 482.594,83.759 483.459,83.552 
			484.346,83.484 610.941,83.484 611.926,83.569 612.881,83.824 613.775,84.244 614.588,84.809 615.285,85.508 615.852,86.319 
			616.268,87.215 616.525,88.167 616.611,89.154 616.611,113.815 616.525,114.799 616.268,115.754 615.852,116.65 615.285,117.457 
			614.588,118.158 613.775,118.726 612.881,119.142 611.926,119.396 610.941,119.484 498.053,119.484 497.164,119.553 
			496.301,119.76 495.479,120.103 494.719,120.567 494.043,121.144 486.479,128.711 485.801,129.287 485.041,129.752 
			484.221,130.094 483.354,130.301 482.471,130.369 461.326,130.369 460.439,130.301 459.574,130.094 458.753,129.752 
			457.992,129.287 457.318,128.711 449.753,121.144 449.075,120.567 448.315,120.103 447.493,119.76 446.628,119.553 
			445.741,119.484 427.001,119.484 426.019,119.396 425.063,119.142 424.167,118.726 423.356,118.158 422.659,117.457 
			422.093,116.65 421.675,115.754 421.417,114.799 		"/>
		<path fill="none" stroke="#000000" stroke-width="0.25" stroke-linecap="round" stroke-linejoin="round" d="M499.985,92.975
			c5.728,0,10.377,4.65,10.377,10.377s-4.649,10.376-10.377,10.376s-10.377-4.649-10.377-10.376S494.258,92.975,499.985,92.975
			L499.985,92.975z"/>
	</g>
	<g>
		<polygon fill="none" stroke="#000000" stroke-width="0.25" points="408.66,208.5 408.66,183.837 408.745,182.855 409.002,181.898 
			409.419,181.003 409.987,180.195 410.684,179.495 411.495,178.928 412.391,178.511 413.342,178.257 413.346,178.256 
			414.33,178.168 436.216,178.168 437.103,178.24 437.968,178.447 438.79,178.787 439.55,179.251 440.224,179.83 447.792,187.396 
			448.47,187.974 449.228,188.439 450.05,188.779 450.913,188.986 451.802,189.056 493.265,189.056 494.149,188.986 
			495.017,188.779 495.839,188.439 496.597,187.974 497.272,187.396 504.839,179.83 505.517,179.251 506.272,178.787 
			507.095,178.447 507.964,178.24 508.851,178.168 598.128,178.168 599.112,178.256 599.114,178.257 600.067,178.511 
			600.964,178.928 601.772,179.495 602.472,180.195 603.038,181.003 603.454,181.898 603.712,182.855 603.798,183.837 
			603.798,208.5 603.712,209.486 603.454,210.437 603.038,211.333 602.472,212.144 601.772,212.841 600.964,213.408 
			600.067,213.829 599.114,214.083 599.112,214.083 598.128,214.168 528.476,214.168 527.589,214.24 526.724,214.447 
			525.901,214.787 525.142,215.251 524.464,215.83 513.263,227.031 512.587,227.611 511.827,228.076 511.005,228.416 
			510.14,228.623 509.253,228.693 440.28,228.693 439.394,228.623 438.528,228.416 437.706,228.076 436.946,227.611 
			436.271,227.031 425.067,215.83 424.393,215.251 423.633,214.787 422.811,214.447 421.946,214.24 421.059,214.168 414.33,214.168 
			413.346,214.083 413.342,214.083 412.391,213.829 411.495,213.408 410.684,212.841 409.987,212.144 409.419,211.333 
			409.002,210.437 408.745,209.486 408.66,208.5 		"/>
		<path fill="none" stroke="#000000" stroke-width="0.25" stroke-linecap="round" stroke-linejoin="round" d="M469.667,202.017
			c5.727,0,10.377,4.649,10.377,10.377c0,5.727-4.65,10.377-10.377,10.377c-5.729,0-10.377-4.65-10.377-10.377
			C459.29,206.667,463.938,202.017,469.667,202.017L469.667,202.017z"/>
	</g>
	<g>
		<polygon fill="none" stroke="#000000" stroke-width="0.25" points="690.6,83.923 691.582,83.837 720.422,83.836 721.406,83.922 
			722.361,84.18 723.258,84.596 724.066,85.163 724.766,85.86 725.332,86.672 725.748,87.567 726.004,88.52 726.004,88.522 
			726.092,89.506 726.092,150.29 726.16,151.176 726.369,152.042 726.709,152.864 727.174,153.62 727.752,154.297 734.777,161.321 
			735.355,161.999 735.82,162.758 736.16,163.581 736.367,164.446 736.439,165.333 736.439,266.612 736.367,267.497 736.16,268.364 
			735.82,269.186 735.355,269.942 734.777,270.62 731.107,274.29 728.084,277.313 727.408,277.891 726.648,278.356 725.828,278.696 
			724.961,278.903 724.074,278.973 691.582,278.974 690.6,278.89 689.644,278.63 688.748,278.214 687.941,277.647 687.24,276.95 
			686.674,276.14 686.257,275.243 686.002,274.29 686.002,274.288 685.914,273.306 685.914,267.046 685.984,266.159 
			686.191,265.294 686.531,264.472 686.996,263.712 687.574,263.034 698.777,251.831 699.355,251.157 699.82,250.397 
			700.16,249.575 700.367,248.71 700.438,247.823 700.438,177.911 700.367,177.022 700.16,176.159 699.82,175.337 699.355,174.579 
			698.777,173.901 687.574,162.7 686.996,162.022 686.531,161.267 686.191,160.442 685.984,159.575 685.914,158.692 685.914,89.507 
			686.002,88.522 686.002,88.521 686.257,87.567 686.674,86.673 687.24,85.86 687.941,85.163 688.748,84.597 689.644,84.181 
			690.6,83.923 		"/>
		<path fill="none" stroke="#000000" stroke-width="0.25" stroke-linecap="round" stroke-linejoin="round" d="M700.291,154.245
			c0-5.727,4.65-10.377,10.377-10.377c5.729,0,10.377,4.65,10.377,10.376s-4.648,10.377-10.377,10.377
			C704.941,164.622,700.291,159.972,700.291,154.245L700.291,154.245z"/>
	</g>
	<g>
		<polygon fill="none" stroke="#000000" stroke-width="0.25" points="548.531,25.488 548.617,24.504 548.875,23.549 549.291,22.653 
			549.859,21.842 550.556,21.145 551.367,20.578 552.262,20.161 553.218,19.903 554.201,19.818 652.286,19.818 653.173,19.749 
			654.038,19.542 654.86,19.2 655.616,18.736 656.294,18.157 663.317,11.133 663.995,10.555 664.751,10.09 665.575,9.75 
			666.438,9.543 667.325,9.472 731.286,9.472 732.171,9.543 733.038,9.75 733.86,10.09 734.618,10.555 735.294,11.133 
			739.056,14.895 742.149,17.987 742.728,18.665 743.192,19.424 743.532,20.246 743.739,21.111 743.812,21.999 743.812,50.149 
			743.726,51.133 743.468,52.088 743.05,52.984 742.483,53.794 741.786,54.492 740.976,55.059 740.079,55.475 739.124,55.733 
			738.142,55.818 729.513,55.818 728.626,55.749 727.761,55.542 726.938,55.2 726.179,54.736 725.505,54.157 718.003,46.657 
			717.327,46.079 716.567,45.614 715.745,45.273 714.88,45.067 713.993,44.996 682.347,44.996 681.462,45.067 680.595,45.273 
			679.776,45.614 679.017,46.079 678.339,46.657 670.837,54.157 670.163,54.736 669.403,55.2 668.581,55.542 667.718,55.749 
			666.829,55.818 554.201,55.818 553.218,55.733 552.262,55.475 551.367,55.059 550.556,54.492 549.859,53.794 549.291,52.984 
			548.875,52.088 548.617,51.133 548.531,50.149 548.531,25.488 		"/>
		<path fill="none" stroke="#000000" stroke-width="0.25" stroke-linecap="round" stroke-linejoin="round" d="M711.177,14.671
			c5.729,0,10.377,4.648,10.377,10.376c0,5.727-4.648,10.377-10.377,10.377c-5.727,0-10.377-4.65-10.377-10.377
			C700.8,19.32,705.45,14.671,711.177,14.671L711.177,14.671z"/>
	</g>
	<g>
		<polygon fill="none" stroke="#000000" stroke-width="0.25" points="538.702,24.742 538.786,25.727 538.786,50.387 538.702,51.371 
			538.444,52.326 538.026,53.223 537.46,54.033 536.763,54.73 535.952,55.297 535.056,55.713 534.101,55.971 533.116,56.057 
			513.665,56.057 512.778,55.986 511.913,55.779 511.091,55.439 510.335,54.975 509.657,54.395 498.22,42.955 497.462,42.32 
			496.606,41.828 495.677,41.49 494.704,41.316 493.716,41.316 492.743,41.49 491.813,41.828 490.958,42.32 490.2,42.955 
			487.589,45.566 478.763,54.395 478.085,54.975 477.329,55.439 476.507,55.779 475.642,55.986 474.755,56.057 349.177,56.057 
			348.194,55.971 347.238,55.713 346.343,55.297 345.532,54.73 344.834,54.033 344.268,53.223 343.851,52.326 343.593,51.371 
			343.508,50.387 343.508,25.727 343.593,24.742 343.851,23.787 344.268,22.891 344.834,22.08 345.532,21.383 346.343,20.816 
			347.238,20.398 348.194,20.143 349.177,20.057 462.276,20.057 463.163,19.986 464.028,19.779 464.851,19.439 465.608,18.975 
			466.284,18.395 473.784,10.895 474.462,10.316 475.22,9.852 476.042,9.512 476.905,9.305 477.794,9.234 508.501,9.234 
			509.388,9.305 510.253,9.512 511.075,9.852 511.831,10.316 512.509,10.895 520.009,18.395 520.688,18.975 521.444,19.439 
			522.267,19.779 523.13,19.986 524.019,20.057 533.116,20.057 534.101,20.143 535.056,20.398 535.952,20.816 536.763,21.383 
			537.46,22.08 538.026,22.891 538.444,23.787 538.702,24.742 		"/>
		<path fill="none" stroke="#000000" stroke-width="0.25" stroke-linecap="round" stroke-linejoin="round" d="M452.306,28.678
			c5.727,0,10.377,4.65,10.377,10.377c0,5.729-4.65,10.377-10.377,10.377s-10.377-4.648-10.377-10.377
			C441.929,33.328,446.579,28.678,452.306,28.678L452.306,28.678z"/>
	</g>
	<g>
		<polygon fill="none" stroke="#000000" stroke-width="0.25" points="491.524,132.722 492.408,132.652 586.697,132.652 
			587.68,132.736 588.635,132.994 589.531,133.412 590.338,133.978 591.039,134.679 591.605,135.486 592.023,136.382 
			592.277,137.337 592.365,138.32 592.365,162.988 592.277,163.972 592.023,164.927 591.605,165.822 591.039,166.63 590.338,167.33 
			589.531,167.898 588.635,168.314 587.68,168.572 586.697,168.658 508.33,168.658 507.446,168.728 506.578,168.935 
			505.755,169.275 505,169.74 504.322,170.318 497.132,177.507 496.458,178.085 495.699,178.55 494.876,178.89 494.011,179.097 
			493.125,179.167 450.262,179.167 449.375,179.097 448.507,178.89 447.688,178.55 446.928,178.085 446.25,177.507 439.063,170.318 
			438.387,169.74 437.627,169.275 436.805,168.935 435.942,168.728 435.055,168.658 398.974,168.658 397.992,168.572 
			397.036,168.314 396.14,167.898 395.333,167.33 394.632,166.63 394.065,165.822 393.648,164.927 393.393,163.972 393.305,162.988 
			393.305,138.32 393.393,137.337 393.648,136.382 394.065,135.486 394.632,134.679 395.333,133.978 396.14,133.412 
			397.036,132.994 397.992,132.736 398.974,132.652 454.313,132.652 455.2,132.722 456.065,132.929 456.887,133.269 
			457.643,133.734 458.321,134.312 469.35,145.345 470.108,145.98 470.963,146.474 471.893,146.814 472.866,146.984 
			473.854,146.984 474.828,146.814 475.756,146.474 476.613,145.98 477.37,145.345 488.399,134.312 489.077,133.734 
			489.833,133.269 490.656,132.929 491.524,132.722 		"/>
		<path fill="none" stroke="#000000" stroke-width="0.25" stroke-linecap="round" stroke-linejoin="round" d="M535.959,148.515
			c0-5.727,4.65-10.377,10.377-10.377s10.375,4.65,10.375,10.377s-4.648,10.377-10.375,10.377S535.959,154.242,535.959,148.515
			L535.959,148.515z"/>
	</g>
	<g>
		<polyline fill="none" stroke="#000000" stroke-width="0.25" points="357.681,295.415 355.22,295.198 352.834,294.558 
			350.594,293.515 348.57,292.099 346.824,290.353 345.407,288.329 344.364,286.089 343.723,283.702 343.508,281.241 
			343.508,76.513 343.723,74.052 344.364,71.664 345.407,69.425 346.824,67.401 348.57,65.655 350.594,64.238 352.834,63.195 
			355.22,62.554 357.681,62.339 645.086,62.339 647.547,62.554 649.934,63.195 652.172,64.238 654.197,65.655 655.943,67.401 
			657.361,69.425 658.404,71.664 659.043,74.052 659.26,76.513 659.26,281.241 659.084,283.458 658.564,285.622 657.715,287.677 
			656.553,289.571 655.109,291.263 653.418,292.708 651.521,293.87 649.465,294.72 647.303,295.239 645.086,295.415 
			357.681,295.415 		"/>
		<polygon fill="none" stroke="#000000" stroke-width="0.25" points="642.818,78.779 359.949,78.779 359.949,278.974 
			642.818,278.974 642.818,78.779 		"/>
	</g>
	<circle fill="none" stroke="#000000" stroke-width="0.25" cx="14.173" cy="14.173" r="7.086"/>
</g>
<g id="Engrave">
	<path d="M58.421,98.734c-0.411-0.16-0.809-0.278-1.193-0.354c-0.385-0.076-0.767-0.114-1.148-0.114
		c-1.15,0-2.058,0.232-2.722,0.696c-0.665,0.463-0.997,1.087-0.997,1.872c0,0.606,0.207,1.105,0.622,1.498
		c0.414,0.392,0.942,0.588,1.585,0.588c0.948,0,1.827-0.296,2.637-0.889c0.811-0.593,1.216-1.211,1.216-1.852V98.734L58.421,98.734z
		 M58.51,102.947c-0.612,0.659-1.278,1.163-1.999,1.511c-0.721,0.348-1.462,0.521-2.223,0.521c-1.113,0-2.011-0.37-2.694-1.11
		c-0.683-0.74-1.025-1.702-1.025-2.888c0-1.409,0.454-2.501,1.361-3.276c0.907-0.776,2.182-1.164,3.825-1.164
		c0.433,0,0.87,0.034,1.31,0.1c0.441,0.067,0.893,0.172,1.356,0.315v-0.094c0-1.025-0.206-1.783-0.616-2.273
		c-0.411-0.491-1.049-0.736-1.916-0.736c-0.582,0-1.232,0.187-1.949,0.562c-0.717,0.374-1.191,0.562-1.422,0.562
		c-0.217,0-0.396-0.105-0.538-0.315c-0.142-0.209-0.213-0.479-0.213-0.809c0-0.526,0.413-0.972,1.238-1.337
		c0.825-0.366,1.88-0.548,3.164-0.548c1.315,0,2.308,0.399,2.98,1.197c0.672,0.797,1.008,1.976,1.008,3.537v6.057h0.549
		c0.53,0,0.885,0.067,1.064,0.201c0.179,0.134,0.269,0.375,0.269,0.722c0,0.321-0.075,0.562-0.224,0.722
		c-0.15,0.161-0.374,0.241-0.672,0.241h-1.759c-0.209,0-0.381-0.076-0.515-0.227c-0.135-0.152-0.224-0.37-0.269-0.656L58.51,102.947
		L58.51,102.947z"/>
	<path d="M84.071,102.786c1.053,0,1.908-0.396,2.565-1.19c0.657-0.793,0.985-1.823,0.985-3.089c0-1.239-0.334-2.26-1.002-3.062
		c-0.668-0.803-1.518-1.204-2.548-1.204c-1.038,0-1.888,0.399-2.548,1.197c-0.661,0.798-0.992,1.821-0.992,3.069
		s0.331,2.273,0.992,3.076C82.183,102.385,83.033,102.786,84.071,102.786L84.071,102.786z M80.576,94.214
		c0.418-0.624,0.941-1.101,1.568-1.431c0.627-0.329,1.337-0.494,2.128-0.494c1.501,0,2.752,0.604,3.753,1.812
		c1,1.208,1.501,2.703,1.501,4.486c0,1.756-0.514,3.245-1.541,4.467c-1.026,1.221-2.279,1.832-3.757,1.832
		c-0.785,0-1.468-0.165-2.05-0.495c-0.583-0.33-1.061-0.829-1.434-1.498v1.07c0,0.241-0.035,0.415-0.106,0.522
		c-0.071,0.107-0.189,0.16-0.353,0.16h-2.05c-0.291,0-0.508-0.08-0.65-0.241c-0.141-0.16-0.212-0.401-0.212-0.722
		c0-0.356,0.085-0.599,0.257-0.729c0.172-0.129,0.512-0.194,1.02-0.194h0.235V89.066h-0.213c-0.508,0-0.855-0.072-1.042-0.214
		c-0.186-0.143-0.28-0.392-0.28-0.749c0-0.321,0.075-0.563,0.224-0.722c0.15-0.161,0.37-0.241,0.661-0.241h1.703
		c0.224,0,0.386,0.045,0.487,0.134c0.101,0.089,0.151,0.227,0.151,0.414V94.214L80.576,94.214z"/>
	<path d="M114.369,93.091v-0.054c0-0.294,0.071-0.51,0.213-0.648c0.142-0.138,0.362-0.207,0.661-0.207
		c0.306,0,0.517,0.107,0.633,0.321c0.115,0.214,0.173,0.655,0.173,1.323v2.488c0,0.33-0.071,0.577-0.213,0.742
		c-0.141,0.165-0.354,0.247-0.638,0.247c-0.202,0-0.375-0.069-0.521-0.207c-0.145-0.138-0.323-0.426-0.532-0.862
		c-0.358-0.723-0.793-1.269-1.305-1.639c-0.511-0.37-1.099-0.555-1.764-0.555c-1.165,0-2.111,0.411-2.839,1.231
		c-0.728,0.82-1.092,1.881-1.092,3.182c0,1.329,0.349,2.414,1.047,3.257c0.698,0.842,1.596,1.263,2.694,1.263
		c0.5,0,0.976-0.082,1.428-0.247c0.452-0.165,0.879-0.412,1.282-0.742c0.142-0.107,0.333-0.272,0.572-0.495
		c0.485-0.472,0.866-0.709,1.142-0.709c0.231,0,0.42,0.087,0.566,0.261c0.145,0.174,0.218,0.399,0.218,0.675
		c0,0.705-0.558,1.425-1.674,2.16c-1.117,0.736-2.302,1.104-3.557,1.104c-1.62,0-2.97-0.619-4.049-1.858
		c-1.079-1.24-1.618-2.786-1.618-4.641c0-1.854,0.537-3.403,1.613-4.647c1.075-1.244,2.419-1.865,4.032-1.865
		c0.567,0,1.137,0.091,1.708,0.274S113.728,92.708,114.369,93.091L114.369,93.091z"/>
	<path d="M141.901,104.645c-0.157,0-0.267-0.047-0.331-0.14c-0.063-0.094-0.095-0.275-0.095-0.542v-1.097
		c-0.448,0.669-1.008,1.188-1.68,1.558c-0.672,0.37-1.4,0.555-2.184,0.555c-1.411,0-2.593-0.599-3.545-1.798
		c-0.952-1.199-1.428-2.69-1.428-4.473c0-1.846,0.508-3.382,1.523-4.607c1.016-1.226,2.281-1.839,3.797-1.839
		c0.769,0,1.46,0.163,2.072,0.488c0.613,0.325,1.139,0.805,1.58,1.438v-5.122h-0.594c-0.65,0-1.07-0.069-1.26-0.208
		c-0.19-0.138-0.286-0.39-0.286-0.755c0-0.321,0.077-0.563,0.23-0.722c0.153-0.161,0.375-0.241,0.666-0.241h2.297
		c0.224,0,0.386,0.045,0.487,0.134c0.101,0.089,0.151,0.227,0.151,0.414v15.071h0.504c0.366,0,0.631,0.074,0.795,0.221
		c0.165,0.147,0.247,0.381,0.247,0.702c0,0.303-0.071,0.54-0.213,0.709s-0.332,0.254-0.571,0.254H141.901L141.901,104.645z
		 M134.564,98.641c0,1.23,0.333,2.237,0.997,3.022c0.665,0.784,1.509,1.177,2.532,1.177c1.03,0,1.878-0.408,2.542-1.224
		c0.665-0.816,0.997-1.852,0.997-3.109c0-1.239-0.33-2.26-0.991-3.062c-0.661-0.803-1.51-1.204-2.548-1.204
		c-1.053,0-1.905,0.406-2.554,1.217C134.889,96.269,134.564,97.33,134.564,98.641L134.564,98.641z"/>
	<path d="M162.275,99.055c0.06,1.284,0.424,2.276,1.092,2.976c0.669,0.7,1.582,1.049,2.739,1.049c0.874,0,1.826-0.278,2.856-0.835
		c1.031-0.558,1.654-0.836,1.871-0.836c0.224,0,0.411,0.085,0.561,0.254c0.149,0.169,0.224,0.379,0.224,0.628
		c0,0.259-0.079,0.495-0.235,0.709c-0.157,0.214-0.407,0.424-0.751,0.629c-0.747,0.437-1.518,0.771-2.313,1.003
		c-0.795,0.231-1.585,0.347-2.369,0.347c-1.702,0-3.065-0.586-4.088-1.758c-1.023-1.173-1.535-2.726-1.535-4.661
		c0-1.97,0.542-3.566,1.625-4.787c1.082-1.221,2.494-1.832,4.233-1.832c1.576,0,2.883,0.57,3.921,1.712
		c1.038,1.141,1.557,2.523,1.557,4.145c0,0.499-0.088,0.834-0.264,1.003c-0.175,0.17-0.651,0.254-1.428,0.254H162.275
		L162.275,99.055z M162.331,97.303h7.292c-0.112-1.061-0.483-1.914-1.114-2.56c-0.631-0.647-1.406-0.97-2.325-0.97
		c-0.993,0-1.829,0.312-2.509,0.936C162.996,95.333,162.548,96.198,162.331,97.303L162.331,97.303z"/>
	<path d="M197.042,102.733c0.307,0,0.539,0.08,0.701,0.24c0.16,0.161,0.24,0.397,0.24,0.709c0,0.321-0.076,0.562-0.23,0.722
		c-0.152,0.161-0.375,0.241-0.666,0.241h-7.324c-0.307,0-0.539-0.08-0.701-0.241c-0.16-0.16-0.24-0.401-0.24-0.722
		c0-0.312,0.076-0.548,0.229-0.709c0.154-0.16,0.375-0.24,0.668-0.24h1.904v-8.171h-1.838c-0.305,0-0.543-0.085-0.711-0.254
		c-0.168-0.17-0.252-0.41-0.252-0.722c0-0.321,0.078-0.562,0.236-0.722c0.154-0.161,0.383-0.241,0.682-0.241h1.77v-0.909
		c0-1.614,0.385-2.784,1.154-3.511c0.77-0.726,2.012-1.09,3.73-1.09c0.836,0,1.453,0.112,1.854,0.335
		c0.398,0.223,0.6,0.57,0.6,1.043c0,0.276-0.088,0.503-0.258,0.682c-0.172,0.178-0.393,0.267-0.66,0.267
		c-0.137,0-0.459-0.053-0.971-0.16s-0.949-0.161-1.314-0.161c-0.846,0-1.449,0.212-1.816,0.635
		c-0.365,0.424-0.549,1.126-0.549,2.107v0.762h3.965c0.307,0,0.541,0.08,0.701,0.241c0.16,0.16,0.24,0.401,0.24,0.722
		c0,0.303-0.082,0.541-0.246,0.715s-0.389,0.261-0.672,0.261h-3.875v8.171H197.042L197.042,102.733z"/>
	<path d="M220.812,94.268c-0.979,0-1.777,0.361-2.398,1.083c-0.619,0.722-0.93,1.658-0.93,2.808c0,1.132,0.311,2.062,0.93,2.788
		c0.621,0.727,1.42,1.09,2.398,1.09c0.971,0,1.768-0.363,2.391-1.09c0.623-0.726,0.936-1.656,0.936-2.788s-0.313-2.064-0.936-2.795
		S221.783,94.268,220.812,94.268L220.812,94.268z M225.671,103.936c0,1.248-0.051,2.133-0.154,2.655
		c-0.105,0.521-0.285,0.978-0.539,1.37c-0.418,0.66-1.004,1.162-1.758,1.505c-0.756,0.343-1.643,0.515-2.666,0.515
		c-0.852,0-1.473-0.098-1.865-0.294c-0.393-0.197-0.588-0.509-0.588-0.938c0-0.276,0.096-0.519,0.285-0.728
		c0.191-0.21,0.416-0.315,0.678-0.315c0.201,0,0.512,0.034,0.93,0.101s0.736,0.1,0.953,0.1c1.104,0,1.889-0.303,2.352-0.909
		c0.463-0.607,0.693-1.645,0.693-3.116v-1.618c-0.455,0.633-0.959,1.096-1.512,1.39c-0.551,0.295-1.188,0.442-1.904,0.442
		c-1.395,0-2.551-0.555-3.467-1.665c-0.914-1.11-1.371-2.516-1.371-4.219c0-1.712,0.471-3.132,1.41-4.259
		c0.941-1.128,2.105-1.692,3.496-1.692c0.574,0,1.137,0.127,1.686,0.381c0.549,0.254,1.104,0.64,1.662,1.157v-0.963
		c0-0.187,0.051-0.326,0.152-0.415c0.1-0.089,0.26-0.133,0.475-0.133h1.693c0.297,0,0.521,0.078,0.672,0.234
		c0.148,0.156,0.223,0.39,0.223,0.702c0,0.356-0.092,0.606-0.279,0.749c-0.188,0.142-0.537,0.214-1.053,0.214h-0.203V103.936
		L225.671,103.936z"/>
	<path d="M244.445,102.759V89.066h-0.213c-0.508,0-0.857-0.072-1.047-0.214c-0.189-0.143-0.285-0.392-0.285-0.749
		c0-0.321,0.076-0.563,0.229-0.722c0.154-0.161,0.375-0.241,0.666-0.241h1.703c0.203,0,0.359,0.049,0.471,0.147
		c0.111,0.098,0.168,0.232,0.168,0.401v6.058c0.545-0.606,1.086-1.054,1.619-1.344c0.533-0.289,1.088-0.434,1.662-0.434
		c1.129,0,2.016,0.419,2.66,1.257c0.646,0.838,0.969,1.997,0.969,3.477v6.057h0.527c0.373,0,0.643,0.074,0.807,0.221
		c0.164,0.147,0.246,0.381,0.246,0.702c0,0.321-0.074,0.562-0.223,0.722c-0.15,0.161-0.375,0.241-0.672,0.241h-2.98
		c-0.352,0-0.588-0.069-0.711-0.207c-0.123-0.138-0.186-0.39-0.186-0.756c0-0.356,0.078-0.599,0.23-0.729
		c0.152-0.129,0.441-0.194,0.867-0.194h0.393v-5.563c0-1.043-0.197-1.838-0.594-2.387c-0.396-0.548-0.971-0.822-1.725-0.822
		c-0.77,0-1.443,0.308-2.023,0.923c-0.578,0.615-0.867,1.377-0.867,2.286v5.563h0.393c0.447,0,0.75,0.067,0.908,0.201
		c0.154,0.134,0.234,0.375,0.234,0.722c0,0.366-0.063,0.618-0.186,0.756c-0.123,0.138-0.359,0.207-0.711,0.207h-2.98
		c-0.291,0-0.508-0.08-0.654-0.241c-0.145-0.16-0.219-0.401-0.219-0.722c0-0.356,0.088-0.599,0.264-0.729
		c0.176-0.129,0.518-0.194,1.025-0.194H244.445L244.445,102.759z"/>
	<path d="M275.158,88.437c0-0.963,0.074-1.569,0.219-1.818c0.146-0.25,0.457-0.375,0.936-0.375c0.463,0,0.77,0.105,0.918,0.314
		c0.148,0.21,0.225,0.707,0.225,1.491c0,0.767-0.07,1.242-0.207,1.425c-0.139,0.182-0.451,0.274-0.936,0.274
		c-0.479,0-0.789-0.085-0.936-0.254C275.232,89.324,275.158,88.972,275.158,88.437L275.158,88.437z M277.23,102.759h3.596
		c0.291,0,0.506,0.074,0.645,0.221c0.139,0.147,0.207,0.381,0.207,0.702c0,0.366-0.066,0.618-0.195,0.756
		c-0.131,0.138-0.373,0.207-0.725,0.207h-8.691c-0.297,0-0.521-0.08-0.672-0.241c-0.148-0.16-0.225-0.401-0.225-0.722
		c0-0.312,0.08-0.544,0.236-0.695c0.156-0.152,0.393-0.228,0.705-0.228h3.416v-8.571h-2.184c-0.307,0-0.539-0.083-0.699-0.248
		s-0.242-0.403-0.242-0.715s0.076-0.546,0.225-0.702c0.15-0.156,0.373-0.234,0.672-0.234h3.281c0.203,0,0.361,0.049,0.477,0.147
		c0.115,0.098,0.174,0.231,0.174,0.401V102.759L277.23,102.759z"/>
	<path d="M304.134,88.437c0-0.954,0.074-1.558,0.225-1.813c0.148-0.254,0.467-0.381,0.953-0.381c0.455,0,0.756,0.103,0.9,0.308
		c0.146,0.205,0.219,0.704,0.219,1.497c0,0.785-0.066,1.264-0.201,1.438s-0.441,0.261-0.918,0.261c-0.486,0-0.805-0.087-0.953-0.261
		C304.208,89.313,304.134,88.963,304.134,88.437L304.134,88.437z M307.169,103.856c0,1.132-0.055,1.993-0.168,2.581
		c-0.111,0.588-0.295,1.079-0.549,1.471c-0.424,0.66-1.014,1.161-1.77,1.504c-0.754,0.344-1.639,0.515-2.654,0.515
		c-0.844,0-1.463-0.102-1.859-0.307c-0.395-0.205-0.594-0.522-0.594-0.95c0-0.276,0.096-0.519,0.285-0.729
		c0.191-0.209,0.418-0.314,0.678-0.314c0.203,0,0.516,0.034,0.941,0.1c0.426,0.067,0.748,0.101,0.963,0.101
		c1.09,0,1.867-0.301,2.33-0.903s0.693-1.643,0.693-3.122v-9.615h-4.379c-0.723,0-1.178-0.07-1.359-0.208
		c-0.184-0.138-0.275-0.39-0.275-0.755c0-0.312,0.074-0.546,0.225-0.702c0.148-0.156,0.373-0.234,0.672-0.234h6.172
		c0.201,0,0.359,0.049,0.475,0.147c0.117,0.098,0.174,0.231,0.174,0.401V103.856L307.169,103.856z"/>
	<path d="M53.896,126.911v3.945c0,0.356-0.062,0.642-0.185,0.856c-0.123,0.214-0.282,0.32-0.476,0.32h-2.072
		c-0.292,0-0.512-0.08-0.661-0.24c-0.15-0.161-0.224-0.401-0.224-0.722c0-0.357,0.087-0.6,0.263-0.729
		c0.175-0.129,0.551-0.194,1.126-0.194h0.537v-13.694h-0.459c-0.642,0-1.057-0.069-1.243-0.207c-0.187-0.138-0.28-0.39-0.28-0.756
		c0-0.321,0.076-0.561,0.229-0.722c0.153-0.16,0.376-0.24,0.667-0.24h2.139c0.202,0,0.359,0.049,0.471,0.147
		c0.112,0.098,0.168,0.231,0.168,0.401v9.588l3.237-3.236c-0.247-0.125-0.428-0.263-0.544-0.415
		c-0.115-0.151-0.173-0.33-0.173-0.535c0-0.267,0.082-0.468,0.246-0.601c0.164-0.134,0.403-0.201,0.717-0.201h3.035
		c0.284,0,0.501,0.076,0.65,0.227c0.149,0.152,0.224,0.379,0.224,0.682c0,0.535-0.362,0.847-1.086,0.936
		c-0.142,0.018-0.254,0.036-0.336,0.054c-0.307,0.045-0.643,0.185-1.008,0.421c-0.366,0.236-0.736,0.551-1.109,0.943l-1.624,1.698
		l4.245,5.51h0.963c0.321,0,0.551,0.071,0.689,0.214c0.138,0.143,0.207,0.379,0.207,0.709c0,0.312-0.077,0.55-0.23,0.715
		c-0.153,0.165-0.375,0.247-0.666,0.247h-3.036c-0.328,0-0.567-0.066-0.716-0.2c-0.15-0.134-0.224-0.348-0.224-0.642
		c0-0.241,0.072-0.448,0.218-0.622c0.146-0.174,0.364-0.314,0.655-0.421l-3.326-4.333L53.896,126.911L53.896,126.911z"/>
	<path d="M82.715,116.453h-1.904c-0.724,0-1.178-0.069-1.361-0.207c-0.183-0.138-0.274-0.39-0.274-0.756
		c0-0.321,0.076-0.561,0.23-0.722c0.153-0.16,0.375-0.24,0.666-0.24h3.696c0.202,0,0.359,0.049,0.471,0.147s0.168,0.231,0.168,0.401
		v15.071h3.517c0.284,0,0.491,0.073,0.621,0.221c0.131,0.147,0.197,0.381,0.197,0.702c0,0.365-0.064,0.617-0.191,0.755
		c-0.127,0.138-0.366,0.207-0.717,0.207h-8.266c-0.291,0-0.513-0.08-0.666-0.24c-0.154-0.161-0.23-0.401-0.23-0.722
		c0-0.312,0.078-0.544,0.235-0.696c0.157-0.151,0.392-0.227,0.706-0.227h3.102V116.453L82.715,116.453z"/>
	<path d="M115.153,124.583c0-1.257-0.095-2.106-0.285-2.548c-0.191-0.441-0.518-0.662-0.981-0.662c-0.552,0-0.991,0.286-1.316,0.856
		c-0.324,0.571-0.487,1.355-0.487,2.354v5.563h0.202c0.455,0,0.76,0.065,0.913,0.194c0.153,0.129,0.229,0.372,0.229,0.729
		c0,0.321-0.063,0.561-0.19,0.722c-0.127,0.16-0.321,0.24-0.583,0.24h-1.422c-0.321,0-0.54-0.089-0.655-0.267
		c-0.116-0.178-0.174-0.562-0.174-1.15v-7.074c0-0.669-0.127-1.197-0.381-1.585c-0.254-0.388-0.601-0.582-1.041-0.582
		c-0.337,0-0.645,0.119-0.925,0.355c-0.28,0.236-0.52,0.586-0.722,1.05v7.368h0.414c0.448,0,0.751,0.067,0.908,0.201
		c0.156,0.133,0.235,0.374,0.235,0.722c0,0.365-0.064,0.617-0.191,0.755c-0.126,0.138-0.369,0.207-0.728,0.207h-2.979
		c-0.291,0-0.506-0.078-0.644-0.234c-0.138-0.156-0.207-0.398-0.207-0.728c0-0.357,0.087-0.6,0.263-0.729
		c0.175-0.129,0.517-0.194,1.025-0.194h0.224v-8.572h-0.202c-0.522,0-0.879-0.071-1.069-0.214c-0.191-0.143-0.286-0.392-0.286-0.749
		c0-0.312,0.075-0.546,0.224-0.702c0.149-0.156,0.373-0.234,0.672-0.234h1.714c0.246,0,0.409,0.051,0.487,0.154
		c0.078,0.102,0.125,0.319,0.14,0.648c0.306-0.392,0.635-0.682,0.986-0.869s0.746-0.281,1.187-0.281
		c0.523,0,0.954,0.136,1.294,0.408c0.339,0.272,0.591,0.684,0.756,1.237c0.313-0.561,0.675-0.976,1.086-1.243
		c0.411-0.268,0.881-0.402,1.412-0.402c0.963,0,1.667,0.375,2.111,1.124c0.444,0.749,0.666,1.961,0.666,3.637v6.058h0.18
		c0.463,0,0.772,0.067,0.929,0.201c0.157,0.133,0.235,0.374,0.235,0.722c0,0.321-0.067,0.561-0.201,0.722
		c-0.135,0.16-0.332,0.24-0.594,0.24h-1.355c-0.299,0-0.519-0.106-0.661-0.32c-0.142-0.214-0.213-0.553-0.213-1.017V124.583
		L115.153,124.583z"/>
	<path d="M134.363,130.147v-8.572h-0.213c-0.508,0-0.857-0.071-1.047-0.214c-0.191-0.143-0.286-0.392-0.286-0.749
		c0-0.33,0.078-0.568,0.235-0.715c0.157-0.147,0.411-0.221,0.762-0.221h1.602c0.201,0,0.358,0.049,0.47,0.147
		s0.168,0.232,0.168,0.401v0.91c0.545-0.607,1.085-1.055,1.619-1.344c0.533-0.29,1.088-0.435,1.663-0.435
		c1.127,0,2.014,0.419,2.66,1.257s0.969,1.997,0.969,3.477v6.058h0.526c0.374,0,0.643,0.073,0.807,0.221
		c0.164,0.147,0.246,0.381,0.246,0.702c0,0.347-0.087,0.595-0.263,0.742c-0.175,0.146-0.487,0.22-0.935,0.22h-2.476
		c-0.477,0-0.784-0.066-0.918-0.2c-0.134-0.134-0.202-0.388-0.202-0.762c0-0.348,0.079-0.589,0.236-0.722
		c0.156-0.134,0.451-0.201,0.884-0.201h0.392v-5.563c0-1.043-0.197-1.839-0.593-2.387s-0.971-0.823-1.725-0.823
		c-0.762,0-1.434,0.308-2.016,0.923c-0.583,0.615-0.874,1.378-0.874,2.287v5.563h0.392c0.448,0,0.751,0.067,0.907,0.201
		c0.157,0.133,0.236,0.374,0.236,0.722c0,0.374-0.068,0.628-0.202,0.762c-0.134,0.134-0.463,0.2-0.986,0.2h-2.643
		c-0.306,0-0.536-0.078-0.689-0.234c-0.153-0.156-0.23-0.398-0.23-0.728c0-0.357,0.088-0.6,0.264-0.729
		c0.175-0.129,0.517-0.194,1.024-0.194H134.363L134.363,130.147z"/>
	<path d="M166.062,130.495c1.15,0,2.093-0.435,2.828-1.304c0.736-0.869,1.104-1.977,1.104-3.323c0-1.347-0.37-2.459-1.109-3.337
		s-1.68-1.317-2.823-1.317c-1.142,0-2.081,0.439-2.817,1.317c-0.735,0.878-1.103,1.99-1.103,3.337c0,1.355,0.366,2.465,1.098,3.329
		C163.97,130.062,164.911,130.495,166.062,130.495L166.062,130.495z M171.942,125.868c0,1.907-0.545,3.468-1.636,4.68
		c-1.09,1.213-2.505,1.819-4.245,1.819c-1.732,0-3.143-0.606-4.234-1.819c-1.09-1.212-1.635-2.773-1.635-4.68
		c0-1.908,0.545-3.466,1.635-4.674c1.091-1.208,2.502-1.812,4.234-1.812c1.733,0,3.146,0.606,4.24,1.819
		C171.396,122.413,171.942,123.969,171.942,125.868L171.942,125.868z"/>
	<path d="M190.703,135.456h2.689c0.283,0,0.496,0.08,0.639,0.241c0.141,0.16,0.213,0.401,0.213,0.722
		c0,0.347-0.07,0.593-0.209,0.735c-0.137,0.143-0.381,0.214-0.732,0.214h-4.939c-0.299,0-0.525-0.08-0.678-0.24
		c-0.154-0.161-0.23-0.397-0.23-0.709c0-0.357,0.096-0.606,0.287-0.749c0.189-0.143,0.543-0.214,1.057-0.214h0.215v-13.881h-0.215
		c-0.514,0-0.867-0.071-1.057-0.214c-0.191-0.143-0.287-0.392-0.287-0.749c0-0.312,0.076-0.546,0.23-0.702
		c0.152-0.156,0.379-0.234,0.678-0.234h1.703c0.223,0,0.385,0.045,0.486,0.134c0.102,0.089,0.15,0.227,0.15,0.414v1.297
		c0.508-0.624,1.07-1.092,1.688-1.404c0.615-0.312,1.277-0.468,1.986-0.468c1.502,0,2.756,0.607,3.766,1.819
		c1.008,1.212,1.512,2.732,1.512,4.56c0,1.756-0.479,3.201-1.434,4.333c-0.957,1.132-2.178,1.698-3.664,1.698
		c-0.791,0-1.52-0.167-2.184-0.501c-0.664-0.335-1.221-0.814-1.67-1.438V135.456L190.703,135.456z M194.175,130.093
		c1.037,0,1.891-0.39,2.555-1.17c0.664-0.78,0.996-1.789,0.996-3.029c0-1.212-0.334-2.213-1.002-3.002s-1.518-1.183-2.549-1.183
		c-1.029,0-1.875,0.392-2.531,1.177c-0.656,0.784-0.986,1.787-0.986,3.008c0,1.231,0.328,2.238,0.98,3.023
		C192.292,129.701,193.138,130.093,194.175,130.093L194.175,130.093z"/>
	<path d="M217.07,125.948c0,1.212,0.33,2.206,0.986,2.982s1.504,1.163,2.543,1.163c1.037,0,1.887-0.394,2.549-1.183
		c0.66-0.789,0.99-1.794,0.99-3.016c0-1.212-0.33-2.213-0.99-3.002c-0.662-0.789-1.512-1.183-2.549-1.183
		c-1.045,0-1.895,0.396-2.549,1.19C217.398,123.692,217.07,124.708,217.07,125.948L217.07,125.948z M224.093,135.456v-5.336
		c-0.463,0.624-1.027,1.103-1.691,1.438c-0.664,0.334-1.396,0.501-2.195,0.501c-1.471,0-2.686-0.566-3.646-1.698
		c-0.959-1.132-1.439-2.577-1.439-4.333c0-1.836,0.506-3.359,1.52-4.567c1.012-1.208,2.271-1.812,3.779-1.812
		c0.701,0,1.359,0.156,1.971,0.468c0.613,0.312,1.18,0.78,1.703,1.404v-1.297c0-0.187,0.051-0.325,0.15-0.414
		c0.102-0.089,0.264-0.134,0.488-0.134h1.691c0.299,0,0.52,0.076,0.66,0.227c0.143,0.152,0.213,0.388,0.213,0.709
		c0,0.357-0.092,0.606-0.273,0.749c-0.184,0.143-0.525,0.214-1.025,0.214h-0.213v13.881h0.213c0.508,0,0.855,0.071,1.041,0.214
		c0.188,0.143,0.281,0.392,0.281,0.749c0,0.312-0.076,0.548-0.225,0.709c-0.148,0.16-0.373,0.24-0.672,0.24h-4.951
		c-0.352,0-0.596-0.071-0.734-0.214c-0.137-0.142-0.207-0.388-0.207-0.735c0-0.321,0.076-0.562,0.225-0.722
		c0.15-0.161,0.365-0.241,0.65-0.241H224.093L224.093,135.456z"/>
	<path d="M247.56,130.147h3.719c0.291,0,0.504,0.073,0.643,0.221c0.139,0.147,0.207,0.381,0.207,0.702
		c0,0.365-0.064,0.617-0.195,0.755c-0.131,0.138-0.371,0.207-0.723,0.207h-7.326c-0.289,0-0.512-0.08-0.66-0.24
		c-0.148-0.161-0.225-0.401-0.225-0.722c0-0.312,0.078-0.544,0.23-0.696c0.152-0.151,0.391-0.227,0.711-0.227h1.949v-8.572h-0.762
		c-0.725,0-1.176-0.069-1.355-0.207c-0.178-0.138-0.27-0.39-0.27-0.756c0-0.312,0.074-0.546,0.221-0.702
		c0.145-0.156,0.365-0.234,0.666-0.234h2.553c0.201,0,0.355,0.047,0.459,0.14c0.105,0.094,0.158,0.23,0.158,0.408v2.274
		c0.709-1.061,1.447-1.85,2.217-2.367s1.598-0.776,2.486-0.776c0.666,0,1.201,0.161,1.613,0.482c0.41,0.32,0.615,0.735,0.615,1.243
		c0,0.33-0.102,0.622-0.307,0.876c-0.205,0.254-0.432,0.381-0.678,0.381c-0.172,0-0.463-0.136-0.869-0.408s-0.771-0.408-1.092-0.408
		c-0.582,0-1.195,0.248-1.842,0.743c-0.646,0.494-1.361,1.277-2.145,2.347V130.147L247.56,130.147z"/>
	<path d="M271.306,131.07v-2.381c0-0.392,0.061-0.673,0.184-0.842c0.123-0.17,0.324-0.254,0.6-0.254
		c0.307,0,0.549,0.249,0.729,0.749c0.119,0.303,0.227,0.53,0.324,0.682c0.313,0.481,0.775,0.867,1.389,1.156
		c0.613,0.29,1.289,0.435,2.027,0.435c0.793,0,1.426-0.192,1.904-0.575c0.479-0.383,0.717-0.887,0.717-1.511
		c0-0.633-0.191-1.083-0.576-1.351c-0.385-0.267-1.043-0.401-1.979-0.401h-0.615c-1.523,0-2.684-0.317-3.482-0.949
		c-0.799-0.633-1.199-1.552-1.199-2.755c0-1.177,0.389-2.091,1.17-2.742c0.781-0.65,1.877-0.976,3.287-0.976
		c0.576,0,1.162,0.096,1.76,0.288c0.598,0.191,0.91,0.287,0.941,0.287c0.082,0,0.238-0.087,0.469-0.261
		c0.232-0.173,0.459-0.26,0.684-0.26c0.254,0,0.443,0.111,0.566,0.334s0.186,0.557,0.186,1.003v1.564
		c0,0.473-0.061,0.814-0.182,1.023c-0.119,0.21-0.309,0.315-0.57,0.315c-0.225,0-0.5-0.228-0.828-0.682
		c-0.232-0.312-0.422-0.549-0.572-0.709c-0.396-0.437-0.818-0.751-1.266-0.943c-0.447-0.191-0.975-0.287-1.578-0.287
		c-0.703,0-1.268,0.185-1.697,0.555c-0.43,0.37-0.645,0.84-0.645,1.41c0,0.562,0.221,0.963,0.66,1.204
		c0.441,0.241,1.391,0.379,2.846,0.415c1.553,0.044,2.688,0.367,3.404,0.969c0.719,0.602,1.076,1.531,1.076,2.788
		c0,1.204-0.395,2.167-1.188,2.889c-0.791,0.722-1.859,1.083-3.203,1.083c-0.426,0-0.9-0.047-1.422-0.14
		c-0.523-0.094-1.182-0.252-1.973-0.475c-0.262,0.205-0.484,0.359-0.672,0.461c-0.186,0.103-0.344,0.154-0.471,0.154
		c-0.26,0-0.461-0.109-0.598-0.328C271.375,131.794,271.306,131.48,271.306,131.07L271.306,131.07z"/>
	<path d="M306.779,120.425c0.365,0,0.633,0.076,0.801,0.227c0.168,0.152,0.252,0.393,0.252,0.722c0,0.312-0.08,0.546-0.234,0.702
		c-0.158,0.156-0.393,0.234-0.707,0.234h-4.535v4.467c0,1.462,0.158,2.425,0.475,2.889c0.318,0.463,0.861,0.695,1.629,0.695
		c0.682,0,1.494-0.236,2.443-0.709c0.949-0.472,1.535-0.709,1.758-0.709c0.209,0,0.387,0.09,0.533,0.268
		c0.145,0.178,0.217,0.397,0.217,0.655c0,0.294-0.09,0.551-0.273,0.769c-0.184,0.218-0.494,0.43-0.936,0.635
		c-0.73,0.348-1.391,0.602-1.977,0.762c-0.586,0.161-1.137,0.241-1.652,0.241c-0.873,0-1.607-0.167-2.201-0.501
		c-0.594-0.335-1.037-0.832-1.328-1.491c-0.148-0.312-0.256-0.682-0.318-1.11c-0.064-0.428-0.096-1.088-0.096-1.979v-4.882h-1.902
		c-0.314,0-0.543-0.073-0.686-0.22c-0.141-0.147-0.213-0.386-0.213-0.716c0-0.365,0.098-0.615,0.293-0.748
		c0.193-0.134,0.607-0.201,1.242-0.201h1.266v-3.45c0-0.384,0.07-0.667,0.207-0.849c0.139-0.183,0.354-0.275,0.645-0.275
		c0.33,0,0.557,0.112,0.684,0.335c0.127,0.223,0.191,0.731,0.191,1.524v2.715H306.779L306.779,120.425z"/>
	<path d="M53.146,154.485c0,1.124,0.198,1.944,0.594,2.461c0.395,0.517,1.023,0.776,1.881,0.776c0.814,0,1.511-0.308,2.089-0.923
		c0.579-0.615,0.869-1.386,0.869-2.314v-5.523h-1.535c-0.291,0-0.502-0.073-0.633-0.22c-0.131-0.147-0.196-0.377-0.196-0.689
		c0-0.339,0.071-0.588,0.213-0.749c0.142-0.16,0.37-0.241,0.683-0.241h2.386c0.284,0,0.483,0.074,0.599,0.221
		c0.116,0.147,0.174,0.506,0.174,1.077v9.173h0.515c0.366,0,0.629,0.072,0.79,0.214c0.16,0.143,0.241,0.379,0.241,0.709
		c0,0.321-0.077,0.562-0.23,0.722c-0.153,0.161-0.375,0.241-0.666,0.241h-1.703c-0.202,0-0.358-0.049-0.47-0.147
		c-0.112-0.098-0.168-0.232-0.168-0.401v-0.91c-0.717,0.66-1.332,1.112-1.843,1.358c-0.512,0.245-1.051,0.367-1.619,0.367
		c-1.232,0-2.156-0.39-2.772-1.17c-0.616-0.78-0.924-1.959-0.924-3.537v-6.018h-0.235c-0.508,0-0.855-0.071-1.042-0.214
		c-0.186-0.142-0.28-0.392-0.28-0.748c0-0.312,0.073-0.546,0.219-0.702c0.145-0.157,0.371-0.235,0.677-0.235h1.692
		c0.261,0,0.442,0.063,0.543,0.188c0.101,0.125,0.151,0.401,0.151,0.829V154.485L53.146,154.485z"/>
	<path d="M78.336,148.962c-0.493,0-0.831-0.071-1.014-0.214c-0.183-0.142-0.274-0.392-0.274-0.748c0-0.312,0.074-0.546,0.224-0.702
		c0.149-0.157,0.373-0.235,0.672-0.235h3.136c0.426,0,0.709,0.07,0.851,0.208c0.142,0.138,0.213,0.381,0.213,0.729
		c0,0.356-0.093,0.606-0.28,0.748c-0.187,0.143-0.53,0.214-1.03,0.214h-0.415l2.912,8.653l3.238-8.653h-0.673
		c-0.574,0-0.963-0.069-1.164-0.207c-0.202-0.138-0.303-0.39-0.303-0.755c0-0.348,0.071-0.591,0.213-0.729
		c0.142-0.138,0.426-0.208,0.851-0.208h3.461c0.299,0,0.523,0.078,0.672,0.235c0.15,0.156,0.224,0.39,0.224,0.702
		c0,0.356-0.091,0.606-0.274,0.748c-0.183,0.143-0.521,0.214-1.014,0.214h-0.201l-3.697,9.749c-0.186,0.491-0.371,0.809-0.554,0.956
		c-0.183,0.147-0.45,0.221-0.801,0.221c-0.321,0-0.569-0.071-0.745-0.214c-0.175-0.143-0.356-0.464-0.543-0.963L78.336,148.962
		L78.336,148.962z"/>
	<path d="M110.93,152.627l-1.444,6.352c-0.075,0.338-0.187,0.575-0.336,0.708c-0.15,0.134-0.374,0.201-0.673,0.201
		c-0.268,0-0.477-0.085-0.627-0.254c-0.149-0.169-0.284-0.477-0.403-0.923l-2.565-9.749h-0.101c-0.313,0-0.539-0.073-0.677-0.22
		c-0.139-0.147-0.208-0.395-0.208-0.742c0-0.304,0.073-0.535,0.219-0.696c0.145-0.16,0.36-0.241,0.644-0.241h2.99
		c0.404,0,0.676,0.07,0.818,0.208c0.142,0.138,0.213,0.381,0.213,0.729c0,0.214-0.041,0.399-0.123,0.555
		c-0.082,0.156-0.187,0.251-0.314,0.287c-0.127,0.045-0.274,0.076-0.442,0.094c-0.168,0.018-0.372,0.026-0.611,0.026h-0.649
		l1.926,8.024l1.445-5.83c0.082-0.339,0.198-0.575,0.347-0.709c0.15-0.134,0.37-0.201,0.661-0.201c0.269,0,0.48,0.087,0.633,0.261
		c0.153,0.174,0.289,0.479,0.409,0.916l1.4,5.563l1.848-8.024h-0.75c-0.516,0-0.863-0.069-1.042-0.207
		c-0.179-0.138-0.269-0.39-0.269-0.755c0-0.357,0.067-0.602,0.202-0.736c0.134-0.134,0.395-0.201,0.784-0.201h3.002
		c0.231,0,0.405,0.081,0.52,0.241c0.116,0.161,0.174,0.392,0.174,0.696c0,0.338-0.067,0.579-0.202,0.722
		c-0.134,0.142-0.388,0.223-0.761,0.24l-2.52,10.017c-0.098,0.338-0.219,0.575-0.364,0.708c-0.146,0.134-0.365,0.201-0.656,0.201
		c-0.269,0-0.481-0.087-0.638-0.261c-0.157-0.174-0.288-0.479-0.392-0.916L110.93,152.627L110.93,152.627z"/>
	<path d="M136.076,157.534h0.325c0.374,0,0.665,0.083,0.874,0.248s0.314,0.399,0.314,0.702c0,0.321-0.092,0.557-0.275,0.709
		c-0.183,0.151-0.472,0.227-0.868,0.227h-3.091c-0.224,0-0.411-0.089-0.56-0.268c-0.15-0.178-0.224-0.401-0.224-0.668
		c0-0.33,0.1-0.571,0.302-0.722c0.202-0.152,0.523-0.228,0.963-0.228h0.224l3.629-4.439l-3.562-4.133h-0.156
		c-0.433,0-0.734-0.069-0.902-0.207c-0.168-0.138-0.252-0.381-0.252-0.729c0-0.365,0.095-0.617,0.286-0.755
		c0.19-0.138,0.554-0.208,1.092-0.208h2.296c0.403,0,0.696,0.078,0.879,0.235c0.183,0.156,0.275,0.398,0.275,0.728
		c0,0.303-0.103,0.535-0.308,0.696c-0.206,0.16-0.503,0.24-0.891,0.24h-0.09l2.409,2.822l2.296-2.822h-0.235
		c-0.419,0-0.728-0.073-0.93-0.22c-0.202-0.147-0.302-0.377-0.302-0.689c0-0.348,0.089-0.599,0.268-0.755
		c0.18-0.157,0.471-0.235,0.874-0.235h2.912c0.232,0,0.42,0.087,0.566,0.261s0.218,0.399,0.218,0.676
		c0,0.329-0.093,0.572-0.28,0.728c-0.186,0.156-0.485,0.234-0.896,0.234h-0.313l-3.215,3.999l3.92,4.573h0.112
		c0.284,0,0.504,0.083,0.661,0.248c0.157,0.165,0.235,0.399,0.235,0.702c0,0.356-0.089,0.602-0.268,0.735
		c-0.18,0.134-0.549,0.201-1.109,0.201h-2.285c-0.396,0-0.687-0.076-0.874-0.227c-0.187-0.152-0.28-0.388-0.28-0.709
		c0-0.294,0.09-0.526,0.269-0.696c0.179-0.169,0.425-0.254,0.739-0.254h0.627l-2.822-3.289L136.076,157.534L136.076,157.534z"/>
	<path d="M165.221,162.843h0.482c0.545,0,0.915,0.069,1.109,0.208c0.194,0.138,0.291,0.39,0.291,0.755
		c0,0.312-0.077,0.548-0.23,0.709c-0.153,0.16-0.375,0.241-0.666,0.241h-5.164c-0.351,0-0.595-0.072-0.733-0.214
		c-0.139-0.143-0.208-0.388-0.208-0.736c0-0.321,0.073-0.561,0.219-0.722c0.145-0.16,0.364-0.241,0.655-0.241h2.431l1.814-4.266
		l-4.111-9.615c-0.492,0-0.83-0.071-1.013-0.214c-0.183-0.142-0.275-0.392-0.275-0.748c0-0.312,0.075-0.546,0.224-0.702
		c0.15-0.157,0.374-0.235,0.672-0.235h3.125c0.419,0,0.699,0.07,0.841,0.208c0.141,0.138,0.212,0.381,0.212,0.729
		c0,0.356-0.093,0.606-0.28,0.748c-0.186,0.143-0.53,0.214-1.03,0.214h-0.415l3.036,7.369l3.091-7.369h-0.437
		c-0.515,0-0.869-0.071-1.064-0.214c-0.194-0.142-0.291-0.392-0.291-0.748c0-0.348,0.071-0.591,0.213-0.729
		c0.142-0.138,0.426-0.208,0.851-0.208h2.767c0.306,0,0.532,0.078,0.677,0.235c0.146,0.156,0.219,0.39,0.219,0.702
		c0,0.338-0.082,0.579-0.247,0.722c-0.164,0.142-0.455,0.223-0.873,0.24L165.221,162.843L165.221,162.843z"/>
	<path d="M191.162,157.534h5.578v-0.695c0-0.767,0.059-1.264,0.174-1.491c0.117-0.227,0.328-0.341,0.633-0.341
		c0.262,0,0.455,0.089,0.582,0.267c0.127,0.179,0.191,0.446,0.191,0.803v2.22c0,0.401-0.096,0.688-0.291,0.862
		s-0.537,0.261-1.031,0.261h-6.775c-0.418,0-0.736-0.103-0.953-0.308c-0.215-0.205-0.324-0.503-0.324-0.896
		c0-0.24,0.047-0.468,0.141-0.682s0.311-0.526,0.654-0.936l6.408-7.636h-5.344v0.682c0,0.776-0.059,1.275-0.174,1.498
		c-0.115,0.223-0.326,0.335-0.633,0.335c-0.268,0-0.471-0.09-0.604-0.268c-0.137-0.178-0.203-0.446-0.203-0.802v-2.274
		c0-0.365,0.125-0.635,0.375-0.809s0.645-0.261,1.182-0.261h5.992c0.523,0,0.918,0.114,1.182,0.341
		c0.266,0.228,0.398,0.564,0.398,1.01c0,0.259-0.084,0.551-0.252,0.876c-0.168,0.325-0.42,0.68-0.756,1.063L191.162,157.534
		L191.162,157.534z"/>
	<path d="M221.125,144.028c-0.857,0-1.525,0.606-2.004,1.819c-0.479,1.212-0.717,2.924-0.717,5.135c0,2.22,0.238,3.938,0.717,5.155
		s1.146,1.825,2.004,1.825c0.867,0,1.539-0.608,2.018-1.825c0.477-1.217,0.717-2.935,0.717-5.155c0-2.211-0.24-3.923-0.717-5.135
		C222.664,144.634,221.992,144.028,221.125,144.028L221.125,144.028z M221.125,159.861c-1.402,0-2.518-0.791-3.344-2.373
		c-0.824-1.583-1.236-3.751-1.236-6.506c0-2.746,0.412-4.91,1.236-6.493c0.826-1.582,1.941-2.373,3.344-2.373
		c1.404,0,2.521,0.793,3.35,2.38c0.83,1.587,1.242,3.749,1.242,6.486c0,2.737-0.412,4.901-1.242,6.492
		C223.646,159.066,222.529,159.861,221.125,159.861L221.125,159.861z"/>
	<path d="M245.98,145.071c-0.098,0.018-0.17,0.031-0.219,0.04c-0.049,0.009-0.092,0.013-0.129,0.013c-0.23,0-0.42-0.078-0.564-0.234
		c-0.146-0.156-0.219-0.363-0.219-0.621c0-0.214,0.063-0.402,0.189-0.562c0.127-0.161,0.311-0.281,0.549-0.361l3.326-1.07
		c0.082-0.027,0.164-0.047,0.242-0.06c0.078-0.014,0.158-0.02,0.24-0.02c0.143,0,0.254,0.078,0.336,0.234
		c0.082,0.156,0.123,0.368,0.123,0.635v14.469h1.793c0.664,0,1.086,0.065,1.266,0.194c0.178,0.13,0.27,0.372,0.27,0.729
		c0,0.321-0.076,0.562-0.225,0.722c-0.15,0.161-0.375,0.241-0.672,0.241h-6.699c-0.299,0-0.521-0.08-0.672-0.241
		c-0.148-0.16-0.225-0.401-0.225-0.722c0-0.357,0.09-0.599,0.27-0.729c0.18-0.129,0.602-0.194,1.266-0.194h1.859v-13.065
		L245.98,145.071L245.98,145.071z"/>
	<path d="M272.291,159.42c-0.395,0-0.688-0.096-0.879-0.288c-0.189-0.191-0.285-0.488-0.285-0.889c0-0.579,0.715-1.667,2.15-3.263
		l0.324-0.374c0.217-0.25,0.529-0.606,0.941-1.07c2.582-2.906,3.875-5.024,3.875-6.352c0-0.954-0.227-1.727-0.684-2.32
		c-0.455-0.593-1.045-0.89-1.77-0.89c-0.471,0-0.92,0.116-1.35,0.348s-0.775,0.544-1.035,0.936
		c-0.045,0.071-0.117,0.192-0.213,0.361c-0.277,0.598-0.586,0.896-0.93,0.896c-0.27,0-0.459-0.098-0.572-0.294
		c-0.111-0.196-0.168-0.571-0.168-1.123c0-0.321,0.027-0.555,0.078-0.702c0.053-0.147,0.15-0.306,0.291-0.475
		c0.479-0.553,1.07-0.992,1.775-1.317c0.705-0.326,1.43-0.488,2.168-0.488c1.24,0,2.275,0.477,3.107,1.43
		c0.834,0.954,1.25,2.127,1.25,3.517c0,1.748-1.27,4.07-3.809,6.968c-0.65,0.722-1.146,1.288-1.49,1.698l-1.377,1.578h5.119
		c0.029-0.383,0.117-0.675,0.264-0.876c0.145-0.2,0.34-0.301,0.588-0.301c0.246,0,0.439,0.098,0.582,0.294
		c0.141,0.197,0.213,0.464,0.213,0.803c0,0.027-0.004,0.073-0.012,0.14s-0.012,0.114-0.012,0.141l-0.09,1.029
		c-0.021,0.277-0.09,0.493-0.201,0.649c-0.111,0.156-0.258,0.234-0.438,0.234H272.291L272.291,159.42z"/>
	<path d="M305.466,150.219c0.875,0.286,1.553,0.805,2.033,1.558c0.482,0.754,0.725,1.674,0.725,2.762
		c0,1.56-0.465,2.837-1.391,3.831c-0.926,0.994-2.123,1.491-3.596,1.491c-1.135,0-2.143-0.261-3.029-0.782
		c-0.885-0.522-1.328-1.094-1.328-1.718c0-0.268,0.082-0.489,0.242-0.662c0.16-0.174,0.357-0.261,0.588-0.261
		c0.127,0,0.588,0.227,1.385,0.682c0.795,0.454,1.535,0.682,2.223,0.682c0.887,0,1.611-0.303,2.166-0.91
		c0.557-0.606,0.836-1.39,0.836-2.353c0-0.794-0.193-1.464-0.578-2.013c-0.385-0.548-0.912-0.898-1.584-1.049
		c-0.203-0.045-0.467-0.081-0.795-0.107c-0.629-0.045-0.941-0.357-0.941-0.937c0-0.526,0.307-0.833,0.918-0.922
		c0.238-0.027,0.438-0.058,0.594-0.094c0.582-0.107,1.053-0.392,1.412-0.856c0.357-0.463,0.537-1.025,0.537-1.685
		c0-0.847-0.221-1.538-0.66-2.073c-0.441-0.534-1.002-0.802-1.682-0.802c-0.627,0-1.27,0.232-1.932,0.696
		c-0.66,0.463-1.074,0.695-1.238,0.695c-0.209,0-0.383-0.08-0.52-0.241c-0.139-0.16-0.207-0.361-0.207-0.602
		c0-0.543,0.418-1.085,1.254-1.624c0.836-0.54,1.762-0.809,2.777-0.809c1.164,0,2.135,0.421,2.906,1.263
		c0.773,0.843,1.16,1.879,1.16,3.109c0,0.937-0.186,1.708-0.555,2.314S306.244,149.881,305.466,150.219L305.466,150.219z"/>
	<path d="M56.875,180.643v-9.067l-4.245,9.067H56.875L56.875,180.643z M55.665,186.807c-0.358,0-0.601-0.069-0.728-0.207
		c-0.127-0.139-0.19-0.391-0.19-0.755c0-0.321,0.065-0.556,0.196-0.703s0.341-0.221,0.633-0.221h1.299v-2.247h-5.231
		c-0.188,0-0.332-0.07-0.438-0.214c-0.104-0.142-0.156-0.347-0.156-0.614v-0.924c0-0.355,0.108-0.73,0.324-1.123
		c0.038-0.07,0.068-0.129,0.09-0.174l4.727-9.575c0.104-0.223,0.19-0.365,0.257-0.428c0.068-0.062,0.157-0.093,0.269-0.093
		c0.045,0,0.123,0.009,0.235,0.027c0.03,0.008,0.06,0.017,0.09,0.026l1.142,0.214c0.105,0.018,0.189,0.087,0.253,0.207
		c0.063,0.121,0.095,0.279,0.095,0.475v10.165h0.571c0.164,0,0.291-0.078,0.381-0.234c0.089-0.157,0.19-0.235,0.302-0.235
		c0.15,0,0.277,0.067,0.381,0.201c0.105,0.134,0.157,0.299,0.157,0.495c0,0.08-0.004,0.154-0.011,0.221
		c-0.008,0.066-0.023,0.136-0.045,0.207l-0.09,0.549c-0.052,0.32-0.129,0.539-0.229,0.654c-0.101,0.116-0.26,0.174-0.476,0.174
		h-0.941v2.247h0.392c0.478,0,0.806,0.069,0.985,0.207c0.18,0.139,0.269,0.377,0.269,0.717c0,0.319-0.074,0.561-0.224,0.722
		c-0.149,0.16-0.373,0.24-0.672,0.24H55.665L55.665,186.807z"/>
	<path d="M80.946,176.35c0.493-0.214,0.948-0.372,1.366-0.475c0.418-0.102,0.818-0.154,1.199-0.154c1.306,0,2.395,0.542,3.265,1.625
		c0.87,1.083,1.305,2.427,1.305,4.032c0,1.703-0.482,3.107-1.445,4.212c-0.964,1.106-2.196,1.659-3.697,1.659
		c-1.254,0-2.305-0.203-3.153-0.608c-0.847-0.405-1.271-0.898-1.271-1.478c0-0.231,0.079-0.439,0.235-0.622
		c0.157-0.183,0.34-0.273,0.549-0.273c0.082,0,0.521,0.171,1.316,0.514c0.796,0.344,1.533,0.515,2.212,0.515
		c1.001,0,1.813-0.358,2.437-1.076c0.623-0.718,0.935-1.643,0.935-2.774c0-1.106-0.295-2.026-0.885-2.762
		c-0.59-0.735-1.333-1.104-2.229-1.104c-0.672,0-1.331,0.201-1.977,0.603c-0.646,0.4-1.036,0.602-1.17,0.602
		c-0.224,0-0.383-0.098-0.476-0.294c-0.094-0.197-0.14-0.553-0.14-1.07v-6.66c0-0.294,0.076-0.506,0.229-0.635
		c0.153-0.129,0.42-0.194,0.801-0.194h5.668c0.358,0,0.627,0.087,0.806,0.261c0.179,0.174,0.269,0.434,0.269,0.782
		c0,0.33-0.093,0.586-0.28,0.769s-0.452,0.274-0.795,0.274h-5.074V176.35L80.946,176.35z"/>
	<path d="M108.589,181.605c0,1.097,0.243,1.991,0.729,2.682c0.485,0.691,1.108,1.036,1.87,1.036c0.717,0,1.305-0.325,1.764-0.976
		c0.459-0.651,0.689-1.502,0.689-2.555c0-1.088-0.237-1.971-0.711-2.647c-0.474-0.679-1.085-1.018-1.832-1.018
		c-0.724,0-1.323,0.326-1.797,0.978C108.827,179.754,108.589,180.588,108.589,181.605L108.589,181.605z M108.343,178.047
		c0.403-0.624,0.851-1.092,1.344-1.404c0.493-0.312,1.031-0.468,1.613-0.468c1.18,0,2.182,0.53,3.008,1.591
		c0.825,1.061,1.237,2.366,1.237,3.919c0,1.622-0.399,2.955-1.198,3.998c-0.799,1.043-1.822,1.564-3.069,1.564
		c-1.471,0-2.649-0.698-3.534-2.093c-0.885-1.396-1.327-3.256-1.327-5.583c0-3.031,0.653-5.468,1.96-7.309
		c1.306-1.84,3.031-2.761,5.174-2.761c0.725,0,1.203,0.062,1.434,0.187c0.232,0.125,0.347,0.361,0.347,0.709
		c0,0.571-0.44,0.865-1.321,0.883c-0.583,0.009-1.049,0.053-1.4,0.133c-1.18,0.268-2.138,0.974-2.873,2.12
		C109.002,174.681,108.537,176.185,108.343,178.047L108.343,178.047z"/>
	<path d="M138.697,186.54c-0.059,0.214-0.115,0.353-0.168,0.414c-0.052,0.063-0.149,0.094-0.291,0.094h-0.985
		c-0.15,0-0.267-0.035-0.353-0.106s-0.129-0.169-0.129-0.294c0-0.071,0.006-0.142,0.017-0.207c0.011-0.067,0.028-0.146,0.05-0.234
		l4.402-14.269h-5.69c-0.022,0.419-0.101,0.729-0.235,0.929c-0.135,0.201-0.333,0.301-0.594,0.301c-0.254,0-0.442-0.076-0.565-0.227
		c-0.124-0.152-0.185-0.388-0.185-0.709c0-0.089,0.002-0.156,0.005-0.201c0.004-0.044,0.01-0.084,0.017-0.12l0.112-1.203
		c0.022-0.25,0.099-0.442,0.23-0.575c0.13-0.134,0.308-0.201,0.532-0.201h7.404c0.216,0,0.375,0.056,0.476,0.167
		c0.1,0.112,0.151,0.288,0.151,0.528v0.455c0,0.107-0.019,0.247-0.056,0.421c-0.038,0.174-0.097,0.408-0.179,0.702L138.697,186.54
		L138.697,186.54z"/>
	<path d="M163.339,182.207c0,0.945,0.249,1.712,0.745,2.3c0.497,0.59,1.156,0.884,1.977,0.884c0.829,0,1.492-0.285,1.988-0.856
		c0.497-0.571,0.745-1.328,0.745-2.273c0-0.928-0.254-1.679-0.761-2.254c-0.508-0.574-1.165-0.861-1.972-0.861
		c-0.799,0-1.452,0.283-1.96,0.849C163.593,180.56,163.339,181.297,163.339,182.207L163.339,182.207z M163.451,174.237
		c0,0.883,0.245,1.605,0.734,2.166c0.489,0.562,1.115,0.843,1.876,0.843c0.769,0,1.398-0.283,1.888-0.849
		c0.489-0.566,0.733-1.295,0.733-2.187c0-0.856-0.244-1.562-0.733-2.119c-0.49-0.558-1.119-0.836-1.888-0.836
		c-0.769,0-1.396,0.278-1.882,0.836C163.694,172.648,163.451,173.363,163.451,174.237L163.451,174.237z M163.821,178.155
		c-0.724-0.428-1.269-0.969-1.635-1.625c-0.366-0.655-0.549-1.419-0.549-2.293c0-1.382,0.414-2.516,1.243-3.403
		c0.829-0.887,1.889-1.331,3.181-1.331c1.27,0,2.326,0.446,3.17,1.337c0.844,0.892,1.266,1.979,1.266,3.263
		c0,0.954-0.179,1.761-0.538,2.421c-0.358,0.659-0.915,1.203-1.669,1.631c0.754,0.366,1.333,0.903,1.736,1.612
		c0.404,0.708,0.605,1.54,0.605,2.493c0,1.472-0.424,2.671-1.271,3.598c-0.848,0.927-1.947,1.391-3.299,1.391
		c-1.351,0-2.449-0.468-3.293-1.403c-0.844-0.938-1.266-2.149-1.266-3.639c0-0.909,0.202-1.718,0.605-2.427
		C162.511,179.071,163.082,178.53,163.821,178.155L163.821,178.155z"/>
	<path d="M196.148,178.73c-0.404,0.614-0.85,1.075-1.334,1.378s-1.02,0.454-1.602,0.454c-1.18,0-2.182-0.528-3.008-1.584
		c-0.824-1.058-1.238-2.356-1.238-3.899c0-1.622,0.398-2.957,1.193-4.005c0.795-1.047,1.814-1.571,3.053-1.571
		c1.463,0,2.645,0.702,3.539,2.106c0.896,1.404,1.346,3.265,1.346,5.583c0,3.058-0.656,5.499-1.967,7.322
		c-1.311,1.822-3.063,2.734-5.26,2.734c-0.693,0-1.154-0.063-1.383-0.188c-0.229-0.124-0.342-0.356-0.342-0.695
		c0-0.57,0.445-0.869,1.334-0.896c0.59-0.019,1.057-0.067,1.398-0.147c1.182-0.259,2.139-0.958,2.873-2.1
		C195.488,182.082,195.953,180.584,196.148,178.73L196.148,178.73z M195.912,175.146c0-1.105-0.244-2.003-0.732-2.694
		c-0.49-0.691-1.115-1.037-1.877-1.037c-0.725,0-1.311,0.326-1.76,0.977c-0.447,0.65-0.672,1.502-0.672,2.554
		c0,1.087,0.236,1.972,0.707,2.654c0.469,0.682,1.074,1.022,1.814,1.022c0.725,0,1.324-0.327,1.803-0.982
		S195.912,176.154,195.912,175.146L195.912,175.146z"/>
	<path d="M222.435,171.857l-0.393,8.679c-0.006,0.294-0.096,0.537-0.268,0.729s-0.389,0.287-0.65,0.287
		c-0.254,0-0.467-0.096-0.639-0.287c-0.17-0.191-0.264-0.435-0.279-0.729l-0.381-8.679v-0.134c0-0.517,0.115-0.925,0.348-1.224
		c0.23-0.298,0.549-0.448,0.951-0.448c0.41,0,0.732,0.15,0.963,0.448c0.232,0.299,0.348,0.707,0.348,1.224V171.857L222.435,171.857z
		 M219.041,184.975c0-0.624,0.193-1.133,0.578-1.524s0.887-0.589,1.506-0.589c0.627,0,1.133,0.197,1.52,0.589
		c0.383,0.392,0.576,0.9,0.576,1.524c0,0.633-0.193,1.147-0.576,1.545c-0.387,0.396-0.893,0.595-1.52,0.595
		c-0.619,0-1.121-0.201-1.506-0.602C219.234,186.112,219.041,185.599,219.041,184.975L219.041,184.975z"/>
	<path d="M246.349,179.96h4.582l-2.408-7.088L246.349,179.96L246.349,179.96z M246.919,172.873h-1.635
		c-0.455,0-0.775-0.074-0.957-0.221c-0.184-0.147-0.273-0.394-0.273-0.742c0-0.365,0.078-0.617,0.24-0.755
		c0.16-0.139,0.6-0.208,1.316-0.208h3.191c0.41,0,0.689,0.065,0.836,0.194c0.145,0.129,0.277,0.368,0.396,0.716l4.379,13.064h0.191
		c0.402,0,0.68,0.067,0.828,0.2c0.148,0.134,0.225,0.375,0.225,0.724c0,0.364-0.072,0.616-0.213,0.755
		c-0.143,0.138-0.408,0.207-0.795,0.207h-3.047c-0.568,0-0.932-0.069-1.094-0.207c-0.158-0.139-0.24-0.391-0.24-0.755
		c0-0.34,0.088-0.578,0.264-0.717c0.176-0.138,0.506-0.207,0.992-0.207h1.041l-1.086-3.183h-5.691l-0.963,3.183h1.086
		c0.494,0,0.83,0.069,1.008,0.207c0.182,0.139,0.27,0.377,0.27,0.717c0,0.364-0.08,0.616-0.24,0.755
		c-0.16,0.138-0.514,0.207-1.059,0.207h-2.945c-0.479,0-0.795-0.069-0.953-0.207c-0.156-0.139-0.234-0.391-0.234-0.755
		c0-0.349,0.078-0.59,0.234-0.724c0.158-0.133,0.459-0.2,0.908-0.2h0.213L246.919,172.873L246.919,172.873z"/>
	<path d="M273.804,184.921h2.484c1.404,0,2.395-0.212,2.969-0.635c0.574-0.424,0.863-1.126,0.863-2.106
		c0-0.989-0.275-1.693-0.824-2.112c-0.549-0.42-1.514-0.629-2.895-0.629h-2.598V184.921L273.804,184.921z M273.804,177.793h2.34
		c1.061,0,1.846-0.199,2.357-0.602c0.512-0.401,0.768-1.02,0.768-1.858c0-0.794-0.232-1.402-0.695-1.826
		c-0.463-0.423-1.127-0.635-1.994-0.635h-2.775V177.793L273.804,177.793z M277.017,186.807h-5.98c-0.262,0-0.457-0.08-0.588-0.24
		c-0.131-0.161-0.197-0.402-0.197-0.722c0-0.357,0.082-0.601,0.246-0.729c0.166-0.13,0.559-0.194,1.176-0.194h0.371v-12.049h-0.371
		c-0.574,0-0.943-0.069-1.107-0.207c-0.164-0.139-0.246-0.39-0.246-0.756c0-0.312,0.066-0.55,0.201-0.715s0.328-0.248,0.582-0.248
		h5.23c1.584,0,2.789,0.368,3.619,1.104c0.828,0.735,1.242,1.803,1.242,3.202c0,0.705-0.127,1.32-0.381,1.846
		s-0.631,0.958-1.131,1.297c0.807,0.348,1.406,0.833,1.799,1.458c0.391,0.624,0.588,1.417,0.588,2.38
		c0,0.811-0.168,1.551-0.504,2.22c-0.336,0.668-0.811,1.217-1.424,1.646c-0.365,0.249-0.773,0.43-1.221,0.541
		S277.839,186.807,277.017,186.807L277.017,186.807z"/>
	<path d="M307.259,171.389c0.074-0.241,0.18-0.411,0.314-0.509c0.135-0.098,0.328-0.147,0.582-0.147
		c0.277,0,0.471,0.081,0.582,0.241c0.113,0.16,0.168,0.49,0.168,0.99c0,0.873,0.008,1.687,0.023,2.44
		c0.014,0.753,0.021,1.081,0.021,0.983c0,0.419-0.059,0.702-0.178,0.849c-0.121,0.147-0.334,0.221-0.641,0.221
		c-0.492,0-0.813-0.419-0.963-1.257c-0.051-0.25-0.092-0.441-0.123-0.575c-0.141-0.669-0.48-1.215-1.018-1.638
		c-0.539-0.424-1.17-0.636-1.895-0.636c-1.32,0-2.381,0.578-3.18,1.732c-0.799,1.155-1.199,2.704-1.199,4.647
		s0.404,3.493,1.215,4.646c0.811,1.155,1.881,1.732,3.209,1.732c0.434,0,0.873-0.074,1.322-0.221
		c0.447-0.147,0.889-0.367,1.322-0.662c0.201-0.124,0.477-0.336,0.828-0.636c0.352-0.298,0.602-0.447,0.75-0.447
		c0.232,0,0.428,0.092,0.588,0.273c0.162,0.184,0.242,0.408,0.242,0.676s-0.088,0.523-0.264,0.77
		c-0.176,0.245-0.502,0.546-0.98,0.902c-0.627,0.49-1.258,0.852-1.893,1.084c-0.635,0.23-1.303,0.347-2.006,0.347
		c-1.844,0-3.367-0.778-4.568-2.333c-1.203-1.556-1.805-3.546-1.805-5.971c0-2.398,0.609-4.392,1.826-5.979s2.748-2.38,4.592-2.38
		c0.492,0,0.996,0.071,1.508,0.214C306.154,170.889,306.693,171.103,307.259,171.389L307.259,171.389z"/>
	<path d="M53.257,212.309c0.239,0.026,0.476,0.047,0.711,0.06c0.236,0.014,0.465,0.021,0.689,0.021c1.837,0,3.183-0.491,4.038-1.472
		s1.283-2.527,1.283-4.641c0-2.122-0.43-3.666-1.288-4.634c-0.859-0.968-2.233-1.45-4.122-1.45c-0.351,0-0.618,0.004-0.801,0.013
		c-0.183,0.009-0.353,0.027-0.51,0.053V212.309L53.257,212.309z M53.257,214.195h-2.274c-0.276,0-0.483-0.08-0.621-0.241
		c-0.138-0.16-0.208-0.4-0.208-0.722c0-0.349,0.081-0.588,0.241-0.723c0.161-0.134,0.465-0.2,0.913-0.2h0.202v-12.05h-0.179
		c-0.448,0-0.757-0.07-0.925-0.214c-0.168-0.142-0.252-0.392-0.252-0.748c0-0.33,0.07-0.572,0.208-0.729s0.352-0.234,0.644-0.234
		h4.726c1.86,0,3.342,0.715,4.447,2.146c1.105,1.431,1.658,3.363,1.658,5.797c0,1.186-0.159,2.287-0.476,3.303
		c-0.317,1.018-0.779,1.908-1.383,2.675c-0.56,0.695-1.242,1.201-2.045,1.519c-0.802,0.315-1.835,0.474-3.097,0.474
		c-0.149,0-0.401-0.009-0.756-0.025C53.726,214.204,53.451,214.195,53.257,214.195L53.257,214.195z"/>
	<path d="M87.924,214.195h-9.779c-0.268,0-0.472-0.08-0.61-0.241c-0.138-0.16-0.207-0.4-0.207-0.722c0-0.357,0.08-0.601,0.241-0.729
		c0.16-0.129,0.528-0.193,1.103-0.193h0.717v-12.05h-0.717c-0.56,0-0.924-0.068-1.092-0.206c-0.168-0.139-0.252-0.391-0.252-0.756
		c0-0.33,0.069-0.572,0.207-0.729c0.138-0.156,0.349-0.234,0.633-0.234h9.756c0.254,0,0.446,0.091,0.577,0.274
		c0.13,0.183,0.196,0.448,0.196,0.796v3.156c0,0.463-0.056,0.783-0.168,0.962s-0.314,0.268-0.605,0.268
		c-0.306,0-0.517-0.098-0.633-0.294c-0.116-0.197-0.174-0.638-0.174-1.324v-1.913h-5.958v4.508h2.934v-0.709
		c0-0.481,0.054-0.815,0.163-1.003c0.108-0.188,0.296-0.281,0.565-0.281c0.262,0,0.443,0.101,0.543,0.301
		c0.101,0.201,0.152,0.631,0.152,1.291v2.487c0,0.669-0.053,1.097-0.157,1.284c-0.105,0.187-0.291,0.28-0.56,0.28
		s-0.454-0.106-0.555-0.32c-0.1-0.215-0.151-0.63-0.151-1.244v-0.468h-2.934v5.924h5.958v-2.166c0-0.688,0.058-1.128,0.174-1.324
		c0.116-0.196,0.327-0.294,0.633-0.294c0.284,0,0.483,0.091,0.599,0.273c0.116,0.184,0.174,0.528,0.174,1.036v3.37
		c0,0.321-0.068,0.566-0.202,0.736C88.361,214.11,88.17,214.195,87.924,214.195L87.924,214.195z"/>
	<path d="M108.959,212.309h2.386c0.314,0,0.541,0.073,0.683,0.221c0.142,0.146,0.213,0.381,0.213,0.702
		c0,0.312-0.067,0.551-0.202,0.715c-0.134,0.165-0.328,0.248-0.582,0.248h-5.521c-0.254,0-0.448-0.083-0.583-0.248
		c-0.134-0.164-0.201-0.403-0.201-0.715c0-0.33,0.073-0.566,0.218-0.709c0.146-0.143,0.394-0.214,0.745-0.214h1.075v-12.05h-0.705
		c-0.568,0-0.932-0.068-1.092-0.206c-0.161-0.139-0.241-0.391-0.241-0.756c0-0.312,0.067-0.551,0.201-0.716
		c0.135-0.165,0.329-0.247,0.583-0.247h9.913c0.254,0,0.446,0.091,0.576,0.274c0.131,0.183,0.197,0.448,0.197,0.796v3.45
		c0,0.312-0.066,0.546-0.197,0.702c-0.13,0.155-0.322,0.233-0.576,0.233c-0.314,0-0.527-0.098-0.639-0.294
		c-0.112-0.197-0.168-0.638-0.168-1.324v-1.913h-6.082v4.508h2.957v-0.349c0-0.649,0.052-1.087,0.157-1.31
		c0.104-0.224,0.291-0.335,0.56-0.335c0.239,0,0.413,0.085,0.521,0.255c0.108,0.169,0.162,0.441,0.162,0.815v3.396
		c0,0.446-0.05,0.753-0.151,0.923c-0.101,0.169-0.278,0.254-0.532,0.254c-0.269,0-0.456-0.111-0.56-0.335
		c-0.105-0.222-0.157-0.659-0.157-1.31v-0.388h-2.957V212.309L108.959,212.309z"/>
	<path d="M142.091,211.895v-3.184h-2.777c-0.225,0-0.391-0.07-0.499-0.214c-0.108-0.143-0.162-0.36-0.162-0.655
		c0-0.339,0.048-0.57,0.145-0.695c0.097-0.124,0.284-0.188,0.56-0.188h4.839c0.194,0,0.338,0.074,0.431,0.222
		c0.094,0.146,0.14,0.367,0.14,0.661c0,0.33-0.062,0.558-0.184,0.683c-0.124,0.125-0.342,0.187-0.656,0.187h-0.145v4.025
		c0,0.241-0.023,0.408-0.068,0.502c-0.044,0.093-0.134,0.185-0.268,0.274c-0.426,0.303-1.046,0.561-1.86,0.774
		s-1.639,0.321-2.475,0.321c-2.001,0-3.618-0.762-4.85-2.286c-1.232-1.525-1.848-3.513-1.848-5.965c0-2.451,0.603-4.476,1.809-6.071
		s2.742-2.394,4.609-2.394c0.508,0,1.017,0.069,1.529,0.208c0.511,0.138,1.043,0.345,1.596,0.622
		c0.075-0.232,0.177-0.399,0.308-0.502c0.131-0.103,0.3-0.154,0.51-0.154c0.351,0,0.584,0.125,0.7,0.375
		c0.115,0.249,0.173,0.824,0.173,1.725v1.818c0,0.437-0.063,0.743-0.19,0.917c-0.127,0.173-0.347,0.26-0.661,0.26
		c-0.388,0-0.668-0.285-0.84-0.855c-0.06-0.169-0.108-0.299-0.146-0.388c-0.276-0.705-0.672-1.249-1.188-1.632
		c-0.515-0.383-1.104-0.575-1.77-0.575c-1.336,0-2.404,0.577-3.203,1.732c-0.799,1.154-1.199,2.712-1.199,4.674
		c0,2.023,0.441,3.633,1.322,4.827c0.881,1.195,2.054,1.792,3.517,1.792c0.426,0,0.864-0.067,1.316-0.2
		C141.059,212.403,141.554,212.189,142.091,211.895L142.091,211.895z"/>
	<path d="M163.384,212.309h0.751c0.44,0,0.75,0.071,0.929,0.214c0.18,0.143,0.269,0.379,0.269,0.709
		c0,0.366-0.078,0.617-0.235,0.756c-0.157,0.138-0.5,0.207-1.031,0.207h-2.957c-0.276,0-0.483-0.08-0.621-0.241
		c-0.138-0.16-0.207-0.4-0.207-0.722c0-0.349,0.08-0.588,0.24-0.723c0.161-0.134,0.465-0.2,0.913-0.2h0.202v-12.05h-0.179
		c-0.448,0-0.756-0.07-0.924-0.214c-0.168-0.142-0.252-0.392-0.252-0.748c0-0.33,0.069-0.572,0.207-0.729s0.353-0.234,0.644-0.234
		h2.822c0.598,0,0.977,0.069,1.137,0.207c0.161,0.139,0.241,0.391,0.241,0.756c0,0.356-0.101,0.606-0.302,0.748
		c-0.202,0.144-0.583,0.214-1.143,0.214h-0.504v4.654h5.365v-4.654h-0.761c-0.426,0-0.73-0.074-0.913-0.227
		c-0.183-0.151-0.275-0.397-0.275-0.735c0-0.365,0.084-0.617,0.253-0.756c0.168-0.138,0.58-0.207,1.237-0.207h2.733
		c0.269,0,0.473,0.08,0.611,0.24c0.138,0.161,0.207,0.402,0.207,0.723c0,0.348-0.079,0.596-0.235,0.742
		c-0.157,0.147-0.437,0.22-0.84,0.22h-0.269v12.05h0.179c0.448,0,0.754,0.068,0.918,0.208c0.165,0.138,0.247,0.376,0.247,0.715
		c0,0.366-0.079,0.617-0.235,0.756c-0.157,0.138-0.519,0.207-1.087,0.207h-2.318c-0.605,0-0.99-0.069-1.154-0.207
		c-0.164-0.139-0.247-0.39-0.247-0.756c0-0.349,0.098-0.588,0.292-0.723c0.194-0.134,0.563-0.2,1.109-0.2h0.548v-5.563h-5.365
		V212.309L163.384,212.309z"/>
	<path d="M196.998,212.309c0.576,0,0.943,0.064,1.104,0.193c0.162,0.129,0.24,0.372,0.24,0.729c0,0.366-0.078,0.617-0.24,0.756
		c-0.16,0.138-0.527,0.207-1.104,0.207h-7.324c-0.27,0-0.475-0.08-0.615-0.241c-0.143-0.16-0.213-0.4-0.213-0.722
		c0-0.357,0.08-0.601,0.244-0.729c0.166-0.129,0.535-0.193,1.109-0.193h2.533v-12.05h-2.533c-0.559,0-0.926-0.068-1.098-0.206
		c-0.17-0.139-0.256-0.391-0.256-0.756c0-0.33,0.07-0.572,0.213-0.729c0.141-0.156,0.354-0.234,0.637-0.234h7.83
		c0.268,0,0.473,0.08,0.609,0.24c0.139,0.161,0.207,0.402,0.207,0.723c0,0.365-0.084,0.617-0.252,0.756
		c-0.168,0.138-0.531,0.206-1.092,0.206h-2.531v12.05H196.998L196.998,212.309z"/>
	<path d="M222.828,200.259h-3.023c-0.561,0-0.924-0.068-1.088-0.206c-0.164-0.139-0.246-0.391-0.246-0.756
		c0-0.33,0.066-0.572,0.195-0.729c0.131-0.156,0.342-0.234,0.633-0.234h7.27c0.27,0,0.469,0.08,0.6,0.24
		c0.131,0.161,0.197,0.402,0.197,0.723c0,0.365-0.082,0.617-0.248,0.756c-0.164,0.138-0.521,0.206-1.074,0.206h-1.445v8.547
		c0,2.041-0.361,3.514-1.086,4.419c-0.725,0.904-1.893,1.357-3.506,1.357c-0.701,0-1.371-0.096-2.006-0.288
		c-0.635-0.191-1.266-0.487-1.893-0.889c-0.262-0.17-0.434-0.337-0.516-0.502s-0.123-0.465-0.123-0.902v-3.143
		c0-0.624,0.055-1.015,0.162-1.17c0.109-0.156,0.299-0.234,0.566-0.234c0.18,0,0.332,0.042,0.459,0.127s0.221,0.207,0.281,0.368
		c0.029,0.089,0.051,0.196,0.066,0.321s0.021,0.347,0.021,0.668v0.134c0,0.294,0.012,0.564,0.035,0.809
		c0.021,0.245,0.055,0.488,0.1,0.729c0.164,0.704,0.49,1.259,0.975,1.665c0.486,0.405,1.072,0.607,1.76,0.607
		c1.029,0,1.775-0.345,2.238-1.035c0.465-0.691,0.695-1.817,0.695-3.377V200.259L222.828,200.259z"/>
	<path d="M246.373,212.309h0.75c0.441,0,0.75,0.071,0.93,0.214s0.27,0.379,0.27,0.709c0,0.356-0.08,0.605-0.236,0.749
		c-0.156,0.143-0.455,0.214-0.896,0.214h-3.83c-0.254,0-0.447-0.083-0.576-0.248c-0.131-0.164-0.197-0.403-0.197-0.715
		c0-0.33,0.072-0.566,0.219-0.709s0.395-0.214,0.744-0.214h1.076v-12.05h-0.717c-0.568,0-0.93-0.068-1.086-0.206
		c-0.158-0.139-0.236-0.391-0.236-0.756c0-0.312,0.066-0.551,0.197-0.716c0.129-0.165,0.322-0.247,0.576-0.247h3.83
		c0.441,0,0.74,0.071,0.896,0.214s0.236,0.393,0.236,0.749s-0.102,0.606-0.303,0.748c-0.201,0.144-0.582,0.214-1.143,0.214h-0.504
		v5.443l4.67-5.443h-0.381c-0.365,0-0.631-0.074-0.795-0.227c-0.164-0.151-0.246-0.397-0.246-0.735c0-0.348,0.063-0.596,0.189-0.742
		c0.127-0.147,0.334-0.221,0.615-0.221h3.307c0.252,0,0.447,0.082,0.582,0.247c0.133,0.165,0.201,0.404,0.201,0.716
		c0,0.348-0.088,0.596-0.264,0.742c-0.176,0.147-0.486,0.22-0.936,0.22h-0.156l-4.334,5.003c0.648,0.159,1.275,0.659,1.881,1.498
		c0.605,0.838,1.545,2.687,2.822,5.549h0.203c0.463,0,0.771,0.066,0.928,0.2c0.158,0.135,0.236,0.374,0.236,0.723
		c0,0.312-0.066,0.551-0.197,0.715c-0.129,0.165-0.322,0.248-0.576,0.248h-1.076c-0.238,0-0.412-0.031-0.52-0.094
		c-0.109-0.063-0.219-0.205-0.33-0.429c-0.068-0.125-0.482-1.028-1.244-2.714l-0.436-0.977c-0.473-1.043-0.941-1.825-1.412-2.348
		c-0.471-0.521-0.971-0.825-1.5-0.915l-1.232,1.391V212.309L246.373,212.309z"/>
	<path d="M280.412,208.806c0-0.669,0.055-1.102,0.168-1.299c0.111-0.195,0.324-0.294,0.639-0.294c0.268,0,0.471,0.083,0.604,0.248
		c0.135,0.165,0.203,0.421,0.203,0.77v4.974c0,0.313-0.072,0.555-0.213,0.729c-0.143,0.174-0.34,0.261-0.594,0.261h-10.463
		c-0.268,0-0.471-0.08-0.604-0.241c-0.135-0.16-0.203-0.4-0.203-0.722c0-0.357,0.082-0.601,0.242-0.729s0.523-0.193,1.092-0.193h1.4
		v-12.05h-1.4c-0.553,0-0.914-0.068-1.082-0.206c-0.168-0.139-0.252-0.391-0.252-0.756c0-0.33,0.07-0.572,0.209-0.729
		c0.137-0.156,0.352-0.234,0.643-0.234h6.061c0.268,0,0.475,0.08,0.615,0.24c0.143,0.161,0.213,0.402,0.213,0.723
		c0,0.365-0.084,0.617-0.252,0.756c-0.168,0.138-0.535,0.206-1.104,0.206h-1.881v12.05h5.959V208.806L280.412,208.806z"/>
	<path d="M303.744,207.615l2.408-8.371c0.104-0.321,0.248-0.553,0.43-0.695c0.184-0.143,0.447-0.214,0.791-0.214h1.836
		c0.24,0,0.42,0.078,0.543,0.234s0.186,0.381,0.186,0.675c0,0.339-0.076,0.573-0.23,0.702c-0.152,0.129-0.434,0.194-0.846,0.194
		h-0.178l0.313,12.169h0.258c0.486,0,0.811,0.064,0.975,0.193s0.246,0.372,0.246,0.729c0,0.312-0.066,0.551-0.201,0.715
		c-0.135,0.165-0.328,0.248-0.582,0.248h-3.148c-0.432,0-0.727-0.071-0.885-0.214c-0.156-0.144-0.234-0.393-0.234-0.749
		c0-0.349,0.094-0.588,0.279-0.723c0.188-0.134,0.545-0.2,1.076-0.2h0.48l-0.234-11.5l-2.217,7.688
		c-0.113,0.374-0.252,0.633-0.416,0.776c-0.164,0.142-0.41,0.214-0.738,0.214c-0.314,0-0.553-0.074-0.717-0.221
		c-0.164-0.147-0.299-0.403-0.404-0.77l-2.252-7.688l-0.201,11.5h0.75c0.441,0,0.752,0.071,0.93,0.214
		c0.18,0.143,0.27,0.379,0.27,0.709c0,0.356-0.078,0.605-0.234,0.749c-0.156,0.143-0.457,0.214-0.896,0.214h-3.137
		c-0.262,0-0.457-0.08-0.588-0.241c-0.131-0.16-0.195-0.4-0.195-0.722c0-0.357,0.082-0.601,0.246-0.729s0.488-0.193,0.975-0.193
		h0.246l0.324-12.169h-0.18c-0.41,0-0.693-0.065-0.85-0.194c-0.158-0.129-0.236-0.363-0.236-0.702c0-0.294,0.064-0.519,0.191-0.675
		s0.309-0.234,0.549-0.234h1.836c0.344,0,0.607,0.071,0.791,0.214c0.182,0.143,0.322,0.374,0.42,0.695L303.744,207.615
		L303.744,207.615z"/>
	<path d="M52.887,239.697h1.401c0.403,0,0.69,0.071,0.862,0.214s0.258,0.379,0.258,0.708c0,0.366-0.081,0.618-0.241,0.756
		c-0.161,0.139-0.514,0.207-1.059,0.207h-3.326c-0.269,0-0.471-0.08-0.605-0.24c-0.135-0.16-0.202-0.401-0.202-0.723
		c0-0.355,0.077-0.599,0.23-0.728c0.153-0.131,0.45-0.194,0.89-0.194h0.213v-12.049h-0.28c-0.627,0-1.051-0.071-1.271-0.214
		c-0.22-0.144-0.331-0.393-0.331-0.749c0-0.33,0.096-0.568,0.286-0.715c0.19-0.148,0.498-0.222,0.924-0.222
		c0,0,0.075-0.005,0.224-0.013c0.149-0.009,0.299-0.014,0.448-0.014h1.053c0.344,0,0.584,0.047,0.722,0.141
		c0.139,0.093,0.301,0.332,0.488,0.715l5.645,11.634v-10.563h-1.232c-0.403,0-0.696-0.078-0.879-0.234
		c-0.183-0.156-0.275-0.398-0.275-0.729c0-0.366,0.079-0.617,0.235-0.756c0.157-0.139,0.486-0.207,0.986-0.207h3.215
		c0.269,0,0.468,0.079,0.599,0.24c0.131,0.16,0.196,0.401,0.196,0.723c0,0.356-0.08,0.605-0.241,0.749
		c-0.16,0.143-0.453,0.214-0.879,0.214h-0.135v13.466c0,0.259-0.05,0.437-0.151,0.535c-0.101,0.098-0.334,0.146-0.7,0.146
		c-0.366,0-0.592-0.023-0.677-0.072c-0.086-0.05-0.23-0.279-0.432-0.689l-5.959-12.263V239.697L52.887,239.697z"/>
	<path d="M89.526,233.639c0,2.442-0.568,4.445-1.703,6.011c-1.135,1.564-2.587,2.347-4.357,2.347c-1.755,0-3.202-0.785-4.34-2.354
		c-1.139-1.569-1.709-3.57-1.709-6.004c0-2.461,0.564-4.47,1.692-6.025c1.127-1.555,2.58-2.333,4.357-2.333
		c1.77,0,3.222,0.784,4.357,2.353C88.958,229.204,89.526,231.205,89.526,233.639L89.526,233.639z M83.466,240.098
		c1.254,0,2.242-0.573,2.963-1.719c0.72-1.146,1.08-2.726,1.08-4.74c0-2.016-0.36-3.596-1.08-4.741
		c-0.721-1.146-1.709-1.718-2.963-1.718c-1.262,0-2.25,0.567-2.963,1.705c-0.713,1.137-1.069,2.721-1.069,4.754
		c0,2.015,0.36,3.595,1.08,4.74C81.235,239.525,82.219,240.098,83.466,240.098L83.466,240.098z"/>
	<path d="M109.116,227.648v6.205h2.094c1.173,0,2.05-0.259,2.633-0.776c0.582-0.517,0.873-1.297,0.873-2.34
		c0-1.025-0.293-1.796-0.879-2.314c-0.586-0.517-1.462-0.774-2.627-0.774H109.116L109.116,227.648z M111.457,239.697
		c0.366,0,0.631,0.073,0.795,0.22c0.164,0.147,0.247,0.381,0.247,0.702c0,0.357-0.079,0.607-0.236,0.749
		c-0.156,0.143-0.455,0.214-0.896,0.214h-5.477c-0.254,0-0.448-0.082-0.582-0.247c-0.135-0.165-0.202-0.403-0.202-0.716
		c0-0.312,0.065-0.543,0.196-0.695c0.131-0.151,0.334-0.227,0.61-0.227h1.445v-12.049h-0.784c-0.657,0-1.066-0.069-1.226-0.207
		c-0.161-0.14-0.241-0.391-0.241-0.756c0-0.313,0.067-0.552,0.202-0.715c0.134-0.165,0.328-0.248,0.582-0.248h5.186
		c1.815,0,3.192,0.419,4.133,1.257c0.941,0.838,1.412,2.072,1.412,3.704s-0.467,2.861-1.401,3.69
		c-0.933,0.829-2.314,1.244-4.144,1.244h-1.96v4.079H111.457L111.457,239.697z"/>
	<path d="M136.771,241.556c-1.299-0.446-2.339-1.394-3.12-2.843c-0.78-1.448-1.17-3.148-1.17-5.102c0-2.354,0.582-4.33,1.747-5.931
		s2.599-2.4,4.301-2.4c1.718,0,3.157,0.802,4.318,2.407c1.162,1.604,1.742,3.588,1.742,5.951c0,2.46-0.564,4.443-1.691,5.95
		c-1.128,1.507-2.606,2.261-4.436,2.261c-0.186,0-0.33,0-0.431,0s-0.2-0.01-0.297-0.027l-1.198,1.404
		c0.448-0.214,0.899-0.372,1.355-0.476c0.455-0.102,0.93-0.152,1.423-0.152c0.328,0,0.782,0.104,1.36,0.313
		c0.579,0.209,1.007,0.314,1.283,0.314c0.231,0,0.51-0.082,0.834-0.247c0.325-0.165,0.544-0.248,0.656-0.248
		c0.186,0,0.347,0.096,0.481,0.288c0.135,0.191,0.202,0.417,0.202,0.675c0,0.277-0.228,0.563-0.683,0.863
		c-0.456,0.298-0.93,0.447-1.423,0.447c-0.418,0-1.017-0.146-1.798-0.441c-0.78-0.294-1.368-0.441-1.764-0.441
		c-0.56,0-1.155,0.161-1.786,0.482c-0.631,0.319-0.984,0.48-1.059,0.48c-0.164,0-0.33-0.106-0.498-0.32
		c-0.168-0.215-0.252-0.438-0.252-0.669c0-0.24,0.358-0.767,1.075-1.578C136.286,242.125,136.563,241.805,136.771,241.556
		L136.771,241.556z M138.529,240.071c1.225,0,2.205-0.577,2.941-1.732c0.735-1.153,1.103-2.721,1.103-4.699
		c0-1.988-0.366-3.563-1.098-4.722s-1.713-1.737-2.946-1.737c-1.224,0-2.202,0.578-2.934,1.737s-1.098,2.733-1.098,4.722
		c0,1.987,0.366,3.557,1.098,4.707C136.327,239.496,137.305,240.071,138.529,240.071L138.529,240.071z"/>
	<path d="M163.563,227.527v5.403h2.319c1.045,0,1.831-0.226,2.358-0.676c0.526-0.449,0.789-1.121,0.789-2.013
		c0-0.9-0.257-1.578-0.772-2.032c-0.516-0.455-1.285-0.683-2.308-0.683H163.563L163.563,227.527z M163.563,239.697h0.762
		c0.433,0,0.739,0.071,0.919,0.214c0.179,0.143,0.268,0.379,0.268,0.708c0,0.357-0.078,0.607-0.235,0.749
		c-0.157,0.143-0.452,0.214-0.885,0.214h-3.763c-0.254,0-0.448-0.082-0.583-0.247c-0.134-0.165-0.201-0.403-0.201-0.716
		c0-0.329,0.074-0.565,0.224-0.708c0.149-0.143,0.396-0.214,0.739-0.214h1.019v-12.17h-0.649c-0.56,0-0.923-0.063-1.087-0.188
		s-0.246-0.36-0.246-0.708c0-0.304,0.065-0.53,0.196-0.682c0.13-0.152,0.326-0.228,0.588-0.228h4.727
		c1.142,0,1.995,0.064,2.559,0.193c0.564,0.129,1.04,0.351,1.428,0.662c0.5,0.401,0.894,0.932,1.182,1.591
		c0.287,0.66,0.431,1.369,0.431,2.127c0,1.025-0.263,1.905-0.79,2.642c-0.526,0.734-1.26,1.246-2.201,1.53
		c0.195,0.135,0.368,0.29,0.521,0.469c0.153,0.178,0.301,0.392,0.443,0.642l2.251,4.119h0.37c0.418,0,0.705,0.069,0.862,0.207
		c0.157,0.138,0.235,0.377,0.235,0.715c0,0.313-0.065,0.551-0.196,0.716c-0.13,0.165-0.323,0.247-0.577,0.247h-1.265
		c-0.366,0-0.725-0.321-1.075-0.963c-0.045-0.053-0.079-0.098-0.101-0.133l-2.151-3.892c-0.44-0.794-0.804-1.307-1.092-1.538
		c-0.287-0.231-0.666-0.348-1.137-0.348h-1.49V239.697L163.563,239.697z"/>
	<path d="M190.322,241.114c-0.037,0.401-0.123,0.68-0.256,0.836c-0.135,0.156-0.348,0.234-0.641,0.234
		c-0.313,0-0.547-0.109-0.699-0.328c-0.152-0.218-0.24-0.572-0.264-1.063l-0.145-3.102v-0.241c0-0.428,0.068-0.73,0.207-0.909
		s0.367-0.268,0.688-0.268c0.449,0,0.771,0.384,0.965,1.149c0.09,0.385,0.176,0.674,0.258,0.87c0.262,0.624,0.674,1.105,1.236,1.444
		c0.564,0.339,1.238,0.508,2.023,0.508c0.963,0,1.744-0.271,2.346-0.815c0.602-0.545,0.902-1.239,0.902-2.087
		c0-0.703-0.186-1.27-0.555-1.697c-0.369-0.429-0.91-0.705-1.619-0.829l-1.658-0.269c-1.545-0.258-2.672-0.743-3.381-1.457
		c-0.711-0.714-1.064-1.717-1.064-3.009c0-1.364,0.473-2.51,1.416-3.437c0.945-0.928,2.123-1.392,3.533-1.392
		c0.412,0,0.844,0.065,1.301,0.194c0.455,0.129,0.969,0.332,1.545,0.608c0.016-0.259,0.074-0.437,0.18-0.534
		c0.104-0.099,0.283-0.148,0.537-0.148c0.328,0,0.557,0.059,0.684,0.174c0.127,0.116,0.205,0.394,0.236,0.829l0.156,2.795v0.135
		c0,0.312-0.074,0.555-0.225,0.729s-0.359,0.261-0.627,0.261c-0.396,0-0.703-0.33-0.918-0.989c-0.105-0.374-0.209-0.655-0.314-0.843
		c-0.246-0.445-0.602-0.789-1.064-1.029c-0.463-0.241-0.988-0.361-1.578-0.361c-0.904,0-1.637,0.267-2.201,0.802
		s-0.846,1.235-0.846,2.101c0,0.677,0.211,1.212,0.633,1.604c0.422,0.394,1.066,0.66,1.932,0.803l1.791,0.268
		c1.301,0.205,2.279,0.68,2.936,1.424c0.658,0.745,0.986,1.75,0.986,3.016c0,1.498-0.467,2.699-1.4,3.604s-2.182,1.356-3.742,1.356
		c-0.537,0-1.07-0.074-1.6-0.227C191.484,241.67,190.919,241.435,190.322,241.114L190.322,241.114z"/>
	<path d="M216.937,231.125c-0.016,0.668-0.082,1.095-0.197,1.277s-0.342,0.273-0.678,0.273c-0.262,0-0.457-0.081-0.588-0.246
		s-0.195-0.408-0.195-0.729c0,0,0.004-0.069,0.01-0.207c0.008-0.139,0.012-0.279,0.012-0.422l0.111-4.413
		c0.016-0.33,0.09-0.568,0.225-0.715c0.135-0.147,0.344-0.221,0.629-0.221h9.732c0.283,0,0.492,0.073,0.627,0.221
		c0.135,0.146,0.205,0.385,0.213,0.715l0.123,4.413c0,0.161,0.004,0.312,0.012,0.455c0.008,0.143,0.012,0.209,0.012,0.201
		c0,0.319-0.072,0.559-0.213,0.715c-0.143,0.156-0.355,0.233-0.639,0.233c-0.299,0-0.504-0.091-0.615-0.273
		c-0.113-0.183-0.178-0.609-0.191-1.277l-0.113-3.477h-3.215v12.049h2.162c0.314,0,0.543,0.073,0.684,0.22
		c0.143,0.147,0.213,0.381,0.213,0.702c0,0.313-0.066,0.551-0.201,0.716s-0.328,0.247-0.582,0.247h-6.283
		c-0.254,0-0.449-0.082-0.584-0.247c-0.133-0.165-0.201-0.403-0.201-0.716c0-0.329,0.072-0.565,0.219-0.708s0.395-0.214,0.744-0.214
		h2.096v-12.049h-3.215L216.937,231.125L216.937,231.125z"/>
	<path d="M243.818,227.648h-0.178c-0.449,0-0.758-0.071-0.926-0.214c-0.168-0.144-0.252-0.393-0.252-0.749
		c0-0.33,0.07-0.573,0.213-0.729s0.355-0.233,0.639-0.233h2.801c0.605,0,0.988,0.068,1.154,0.207
		c0.164,0.139,0.246,0.39,0.246,0.756c0,0.356-0.098,0.605-0.291,0.749c-0.195,0.143-0.564,0.214-1.109,0.214h-0.482v7.328
		c0,0.989,0.039,1.71,0.117,2.159c0.078,0.45,0.207,0.862,0.387,1.237c0.262,0.544,0.627,0.967,1.092,1.271
		c0.467,0.303,0.984,0.455,1.553,0.455c1.068,0,1.846-0.384,2.334-1.15c0.49-0.767,0.734-2.006,0.734-3.718v-7.582h-0.594
		c-0.582,0-0.973-0.069-1.17-0.207c-0.197-0.14-0.297-0.391-0.297-0.756c0-0.366,0.078-0.617,0.234-0.756
		c0.158-0.139,0.482-0.207,0.975-0.207h3.014c0.268,0,0.473,0.079,0.609,0.24c0.139,0.16,0.207,0.401,0.207,0.723
		c0,0.356-0.082,0.605-0.246,0.749c-0.164,0.143-0.463,0.214-0.895,0.214h-0.158v7.876c0,2.167-0.404,3.792-1.215,4.875
		s-2.029,1.625-3.656,1.625c-1.471,0-2.646-0.542-3.523-1.625c-0.879-1.083-1.316-2.543-1.316-4.38V227.648L243.818,227.648z"/>
	<path d="M273.298,238.159l1.928-7.997c0.066-0.285,0.143-0.466,0.229-0.542c0.086-0.075,0.242-0.113,0.465-0.113h0.504
		c0.217,0,0.371,0.04,0.465,0.12s0.174,0.241,0.24,0.481l2.186,8.051l1.098-10.632h-1.758c-0.344,0-0.596-0.071-0.758-0.213
		c-0.16-0.144-0.24-0.37-0.24-0.683c0-0.339,0.076-0.575,0.229-0.709c0.154-0.134,0.439-0.2,0.857-0.2h3.619
		c0.164,0,0.309,0.087,0.436,0.261s0.191,0.39,0.191,0.648c0,0.304-0.072,0.528-0.213,0.676c-0.143,0.146-0.355,0.22-0.639,0.22
		h-0.135l-1.59,13.373c-0.021,0.276-0.064,0.459-0.129,0.549c-0.063,0.089-0.166,0.133-0.309,0.133h-0.795
		c-0.172,0-0.303-0.04-0.393-0.12s-0.168-0.231-0.234-0.455l-2.432-9.199l-2.148,9.227c-0.055,0.223-0.121,0.37-0.203,0.441
		s-0.217,0.106-0.402,0.106h-0.84c-0.15,0-0.26-0.042-0.332-0.127c-0.07-0.084-0.121-0.278-0.15-0.581l-1.703-13.347h-0.135
		c-0.291,0-0.51-0.075-0.654-0.228c-0.146-0.15-0.219-0.374-0.219-0.668c0-0.268,0.061-0.485,0.18-0.655
		c0.119-0.169,0.266-0.254,0.436-0.254h3.631c0.41,0,0.691,0.066,0.844,0.2c0.154,0.134,0.23,0.37,0.23,0.709
		c0,0.313-0.08,0.539-0.24,0.683c-0.162,0.142-0.41,0.213-0.746,0.213h-1.578L273.298,238.159L273.298,238.159z"/>
	<path d="M300.83,238.159l1.928-7.997c0.066-0.285,0.145-0.466,0.229-0.542c0.086-0.075,0.242-0.113,0.465-0.113h0.504
		c0.217,0,0.373,0.04,0.465,0.12c0.096,0.08,0.176,0.241,0.242,0.481l2.184,8.051l1.098-10.632h-1.758
		c-0.344,0-0.596-0.071-0.758-0.213c-0.158-0.144-0.24-0.37-0.24-0.683c0-0.339,0.078-0.575,0.23-0.709s0.439-0.2,0.857-0.2h3.617
		c0.164,0,0.311,0.087,0.438,0.261s0.189,0.39,0.189,0.648c0,0.304-0.07,0.528-0.213,0.676c-0.143,0.146-0.354,0.22-0.639,0.22
		h-0.135l-1.59,13.373c-0.023,0.276-0.064,0.459-0.129,0.549c-0.063,0.089-0.166,0.133-0.309,0.133h-0.795
		c-0.172,0-0.303-0.04-0.391-0.12c-0.09-0.08-0.168-0.231-0.236-0.455l-2.43-9.199l-2.152,9.227
		c-0.051,0.223-0.119,0.37-0.201,0.441c-0.08,0.071-0.217,0.106-0.402,0.106h-0.84c-0.15,0-0.26-0.042-0.33-0.127
		c-0.072-0.084-0.121-0.278-0.152-0.581l-1.703-13.347h-0.133c-0.291,0-0.51-0.075-0.656-0.228c-0.145-0.15-0.219-0.374-0.219-0.668
		c0-0.268,0.061-0.485,0.18-0.655c0.119-0.169,0.266-0.254,0.438-0.254h3.629c0.41,0,0.693,0.066,0.846,0.2s0.23,0.37,0.23,0.709
		c0,0.313-0.082,0.539-0.242,0.683c-0.16,0.142-0.408,0.213-0.744,0.213h-1.58L300.83,238.159L300.83,238.159z"/>
	<path d="M51.219,255.035c-0.322-0.018-0.551-0.1-0.689-0.247c-0.138-0.146-0.208-0.386-0.208-0.716c0-0.313,0.066-0.55,0.196-0.715
		c0.131-0.165,0.323-0.247,0.577-0.247h2.823c0.276,0,0.487,0.082,0.633,0.247c0.145,0.165,0.218,0.402,0.218,0.715
		c0,0.304-0.093,0.54-0.28,0.709c-0.186,0.17-0.444,0.254-0.773,0.254h-0.324l2.542,4.293l2.644-4.293H58.23
		c-0.358,0-0.638-0.087-0.84-0.26c-0.201-0.174-0.302-0.408-0.302-0.703c0-0.294,0.078-0.528,0.235-0.702
		c0.157-0.173,0.37-0.26,0.638-0.26h2.823c0.254,0,0.446,0.082,0.577,0.247s0.196,0.402,0.196,0.715c0,0.339-0.077,0.584-0.23,0.736
		c-0.153,0.151-0.405,0.227-0.756,0.227l-3.573,5.777l3.898,6.271c0.329,0.027,0.571,0.116,0.728,0.269
		c0.157,0.15,0.235,0.37,0.235,0.654c0,0.294-0.074,0.528-0.224,0.702c-0.149,0.174-0.351,0.261-0.604,0.261h-3.002
		c-0.389,0-0.65-0.071-0.784-0.214c-0.135-0.143-0.202-0.393-0.202-0.749c0-0.348,0.082-0.589,0.246-0.722
		c0.165-0.134,0.486-0.201,0.964-0.201h0.459l-2.868-4.72l-2.822,4.72h0.504c0.515,0,0.862,0.067,1.042,0.201
		c0.179,0.133,0.268,0.374,0.268,0.722c0,0.356-0.071,0.606-0.212,0.749c-0.142,0.143-0.407,0.214-0.796,0.214h-2.979
		c-0.254,0-0.456-0.087-0.605-0.261s-0.224-0.408-0.224-0.702c0-0.303,0.078-0.53,0.235-0.682c0.157-0.152,0.407-0.232,0.751-0.241
		l3.786-6.19L51.219,255.035L51.219,255.035z"/>
	<path d="M85.93,267.083c0.575,0,0.943,0.065,1.103,0.194c0.161,0.129,0.241,0.372,0.241,0.729c0,0.365-0.08,0.617-0.241,0.756
		c-0.16,0.139-0.483,0.207-0.969,0.207h-5.32c-0.485,0-0.806-0.068-0.963-0.207s-0.235-0.391-0.235-0.756
		c0-0.356,0.087-0.6,0.263-0.729c0.175-0.129,0.539-0.194,1.092-0.194h1.624v-4.439l-3.73-7.609h-0.19
		c-0.448,0-0.754-0.071-0.919-0.214c-0.164-0.142-0.246-0.392-0.246-0.749c0-0.329,0.069-0.572,0.207-0.728
		c0.138-0.156,0.353-0.234,0.644-0.234h3.069c0.441,0,0.738,0.071,0.891,0.214c0.153,0.142,0.229,0.392,0.229,0.748
		c0,0.357-0.091,0.607-0.274,0.749c-0.183,0.143-0.517,0.214-1.003,0.214h-0.369l2.71,5.804l2.812-5.804h-0.46
		c-0.403,0-0.683-0.071-0.84-0.214c-0.156-0.142-0.235-0.392-0.235-0.749c0-0.374,0.067-0.628,0.202-0.762
		c0.134-0.135,0.474-0.2,1.019-0.2h2.061c0.568,0,0.932,0.069,1.092,0.207c0.161,0.138,0.241,0.39,0.241,0.755
		c0,0.357-0.08,0.607-0.241,0.749c-0.16,0.143-0.465,0.214-0.913,0.214h-0.179l-3.808,7.797v4.252H85.93L85.93,267.083z"/>
	<path d="M108.388,255.035l-0.112,2.782c-0.008,0.116-0.013,0.225-0.017,0.327s-0.006,0.208-0.006,0.314
		c0,0.321-0.069,0.556-0.207,0.702c-0.138,0.147-0.353,0.22-0.644,0.22c-0.276,0-0.476-0.086-0.599-0.26s-0.185-0.462-0.185-0.863
		v-0.521l0.146-3.691c0.007-0.32,0.08-0.557,0.218-0.709c0.138-0.151,0.353-0.227,0.644-0.227h6.407c0.441,0,0.773,0.1,0.997,0.301
		c0.224,0.2,0.336,0.492,0.336,0.875c0,0.197-0.035,0.404-0.106,0.622c-0.071,0.219-0.174,0.453-0.308,0.702l-6.609,11.474h5.186
		l0.134-3.129c0-0.009,0-0.026,0-0.054c0.038-1.025,0.322-1.537,0.852-1.537c0.276,0,0.478,0.091,0.605,0.274
		c0.127,0.182,0.19,0.474,0.19,0.876c0,0-0.004,0.055-0.011,0.167c-0.008,0.11-0.011,0.22-0.011,0.326l-0.157,4.053
		c-0.008,0.33-0.079,0.563-0.213,0.702c-0.134,0.139-0.347,0.207-0.638,0.207h-7.035c-0.321,0-0.582-0.111-0.784-0.334
		c-0.201-0.223-0.302-0.513-0.302-0.869c0-0.215,0.045-0.45,0.134-0.709c0.09-0.259,0.228-0.553,0.415-0.883l6.429-11.14H108.388
		L108.388,255.035z"/>
	<path d="M133.859,264.088c-0.15,0-0.267-0.056-0.353-0.167s-0.129-0.266-0.129-0.462v-1.417c0-0.17,0.043-0.303,0.129-0.401
		s0.203-0.147,0.353-0.147h9.285c0.172,0,0.306,0.049,0.403,0.147c0.098,0.099,0.146,0.231,0.146,0.401v1.417
		c0,0.161-0.056,0.306-0.168,0.436c-0.112,0.129-0.239,0.193-0.381,0.193H133.859L133.859,264.088z"/>
	<path d="M170.52,268.969h-9.778c-0.269,0-0.472-0.08-0.611-0.24c-0.138-0.16-0.207-0.401-0.207-0.723c0-0.356,0.08-0.6,0.241-0.729
		c0.161-0.129,0.528-0.194,1.103-0.194h0.717v-12.049h-0.717c-0.56,0-0.924-0.069-1.092-0.207s-0.252-0.39-0.252-0.756
		c0-0.329,0.069-0.572,0.207-0.728c0.139-0.156,0.349-0.234,0.633-0.234h9.756c0.254,0,0.446,0.091,0.577,0.273
		c0.131,0.184,0.196,0.448,0.196,0.796v3.155c0,0.464-0.056,0.785-0.168,0.963c-0.112,0.18-0.313,0.269-0.604,0.269
		c-0.306,0-0.517-0.099-0.633-0.294c-0.115-0.197-0.173-0.639-0.173-1.324v-1.913h-5.959v4.507h2.934v-0.709
		c0-0.48,0.055-0.815,0.163-1.003c0.108-0.187,0.297-0.281,0.566-0.281c0.261,0,0.442,0.102,0.543,0.302s0.151,0.631,0.151,1.291
		v2.486c0,0.669-0.052,1.098-0.157,1.284c-0.104,0.188-0.291,0.281-0.56,0.281c-0.27,0-0.454-0.107-0.554-0.321
		c-0.101-0.214-0.152-0.629-0.152-1.244v-0.468h-2.934v5.924h5.959v-2.166c0-0.687,0.058-1.128,0.173-1.323
		c0.116-0.196,0.327-0.295,0.633-0.295c0.284,0,0.484,0.092,0.599,0.274c0.116,0.183,0.174,0.528,0.174,1.036v3.37
		c0,0.32-0.067,0.565-0.202,0.735C170.956,268.884,170.766,268.969,170.52,268.969L170.52,268.969z"/>
	<path d="M189.404,258.512c-0.014,0.669-0.08,1.095-0.195,1.276c-0.117,0.184-0.342,0.274-0.678,0.274
		c-0.262,0-0.457-0.082-0.588-0.247s-0.197-0.408-0.197-0.729c0,0,0.004-0.068,0.012-0.207c0.008-0.138,0.012-0.278,0.012-0.421
		l0.111-4.413c0.016-0.33,0.09-0.568,0.225-0.716c0.135-0.146,0.344-0.22,0.627-0.22h9.732c0.285,0,0.494,0.073,0.629,0.22
		c0.135,0.147,0.205,0.386,0.213,0.716l0.123,4.413c0,0.16,0.004,0.313,0.012,0.454c0.006,0.144,0.01,0.21,0.01,0.201
		c0,0.321-0.07,0.559-0.213,0.715c-0.141,0.156-0.354,0.234-0.637,0.234c-0.301,0-0.504-0.091-0.617-0.274
		c-0.111-0.182-0.176-0.607-0.191-1.276l-0.111-3.478h-3.215v12.049h2.162c0.314,0,0.541,0.074,0.684,0.222
		c0.143,0.146,0.213,0.381,0.213,0.701c0,0.313-0.068,0.551-0.201,0.716c-0.135,0.165-0.33,0.247-0.584,0.247h-6.283
		c-0.254,0-0.447-0.082-0.582-0.247s-0.201-0.403-0.201-0.716c0-0.33,0.072-0.565,0.219-0.709c0.145-0.143,0.393-0.214,0.744-0.214
		h2.096v-12.049h-3.215L189.404,258.512L189.404,258.512z"/>
	<path d="M218.449,267.083h0.75c0.441,0,0.75,0.071,0.93,0.214c0.18,0.144,0.27,0.379,0.27,0.709c0,0.365-0.08,0.617-0.236,0.756
		s-0.5,0.207-1.031,0.207h-2.957c-0.275,0-0.482-0.08-0.621-0.24s-0.207-0.401-0.207-0.723c0-0.348,0.08-0.589,0.24-0.722
		c0.16-0.134,0.465-0.201,0.914-0.201h0.201v-12.049h-0.18c-0.447,0-0.756-0.071-0.924-0.214c-0.168-0.142-0.252-0.392-0.252-0.749
		c0-0.329,0.068-0.572,0.207-0.728c0.139-0.156,0.354-0.234,0.645-0.234h2.822c0.598,0,0.977,0.069,1.137,0.207
		s0.242,0.39,0.242,0.755c0,0.357-0.102,0.607-0.303,0.749c-0.201,0.143-0.582,0.214-1.143,0.214h-0.504v4.654h5.365v-4.654h-0.764
		c-0.424,0-0.729-0.075-0.912-0.227c-0.182-0.152-0.273-0.397-0.273-0.736c0-0.365,0.084-0.617,0.252-0.755s0.58-0.207,1.238-0.207
		h2.732c0.27,0,0.473,0.08,0.609,0.24c0.139,0.16,0.207,0.401,0.207,0.722c0,0.348-0.078,0.596-0.234,0.743
		c-0.156,0.146-0.438,0.22-0.84,0.22h-0.27v12.049h0.18c0.449,0,0.754,0.069,0.918,0.207c0.164,0.14,0.246,0.377,0.246,0.716
		c0,0.365-0.078,0.617-0.234,0.756s-0.52,0.207-1.086,0.207h-2.318c-0.605,0-0.99-0.068-1.154-0.207s-0.246-0.391-0.246-0.756
		c0-0.348,0.096-0.589,0.291-0.722c0.193-0.134,0.564-0.201,1.109-0.201h0.549v-5.563h-5.365V267.083L218.449,267.083z"/>
	<path d="M248.658,253.578c-0.859,0-1.527,0.606-2.006,1.818c-0.479,1.213-0.717,2.925-0.717,5.136c0,2.219,0.238,3.938,0.717,5.155
		c0.479,1.217,1.146,1.825,2.006,1.825c0.865,0,1.537-0.608,2.016-1.825c0.479-1.218,0.717-2.937,0.717-5.155
		c0-2.211-0.238-3.923-0.717-5.136C250.195,254.184,249.523,253.578,248.658,253.578L248.658,253.578z M248.658,269.411
		c-1.404,0-2.52-0.791-3.344-2.374c-0.826-1.582-1.238-3.751-1.238-6.505c0-2.746,0.412-4.911,1.238-6.493
		c0.824-1.582,1.939-2.374,3.344-2.374c1.402,0,2.52,0.794,3.348,2.381s1.244,3.749,1.244,6.486c0,2.736-0.416,4.901-1.244,6.492
		S250.06,269.411,248.658,269.411L248.658,269.411z"/>
	<path d="M271.519,264.088c-0.15,0-0.268-0.056-0.354-0.167s-0.129-0.266-0.129-0.462v-1.417c0-0.17,0.043-0.303,0.129-0.401
		s0.203-0.147,0.354-0.147h9.285c0.172,0,0.305,0.049,0.402,0.147s0.146,0.231,0.146,0.401v1.417c0,0.161-0.057,0.306-0.168,0.436
		c-0.113,0.129-0.24,0.193-0.381,0.193H271.519L271.519,264.088z"/>
	<path d="M302.119,261.855h2.408l1.008-3.37h-2.408L302.119,261.855L302.119,261.855z M299.822,269.464
		c-0.059,0.196-0.135,0.342-0.229,0.435c-0.094,0.094-0.209,0.141-0.342,0.141c-0.246,0-0.445-0.076-0.6-0.228
		c-0.152-0.151-0.23-0.353-0.23-0.603c0-0.035,0.01-0.08,0.023-0.133c0.014-0.054,0.029-0.107,0.045-0.161l1.658-5.509h-2.521
		c-0.23,0-0.408-0.065-0.531-0.194c-0.123-0.13-0.186-0.318-0.186-0.568c0-0.249,0.064-0.443,0.191-0.581
		c0.127-0.139,0.303-0.208,0.525-0.208h2.98l1.008-3.37h-2.98c-0.23,0-0.408-0.066-0.531-0.2s-0.186-0.326-0.186-0.575
		c0-0.25,0.066-0.447,0.197-0.595s0.303-0.221,0.52-0.221h3.439l1.814-6.059c0.061-0.195,0.137-0.341,0.23-0.434
		c0.092-0.094,0.207-0.142,0.34-0.142c0.24,0,0.434,0.076,0.584,0.229c0.148,0.151,0.225,0.352,0.225,0.601
		c0,0.072-0.004,0.131-0.012,0.175c-0.008,0.045-0.02,0.085-0.033,0.121l-1.637,5.509h2.408l1.838-6.059
		c0.051-0.187,0.129-0.33,0.229-0.428c0.102-0.098,0.215-0.147,0.342-0.147c0.232,0,0.428,0.078,0.588,0.234
		c0.162,0.156,0.242,0.346,0.242,0.569c0,0.053-0.006,0.106-0.018,0.16s-0.027,0.106-0.051,0.161l-1.658,5.509h2.342
		c0.225,0,0.4,0.07,0.525,0.214c0.127,0.143,0.191,0.334,0.191,0.575c0,0.25-0.064,0.445-0.191,0.589
		c-0.125,0.142-0.301,0.213-0.525,0.213h-2.801l-1.008,3.37h2.779c0.223,0,0.398,0.069,0.525,0.208
		c0.127,0.138,0.189,0.332,0.189,0.581c0,0.25-0.061,0.438-0.184,0.568c-0.123,0.129-0.301,0.194-0.531,0.194h-3.238l-1.814,6.058
		c-0.053,0.196-0.127,0.342-0.225,0.435c-0.096,0.094-0.213,0.141-0.346,0.141c-0.24,0-0.436-0.076-0.588-0.228
		c-0.154-0.151-0.23-0.353-0.23-0.603c0-0.035,0.006-0.08,0.018-0.133c0.01-0.054,0.027-0.107,0.049-0.161l1.625-5.509h-2.408
		L299.822,269.464L299.822,269.464z"/>
	<g>
		<rect x="17.299" y="29.663" fill="none" width="315.751" height="34.848"/>
		<path d="M97.805,46.299H83.021c0.375,0.938,1.04,1.693,1.995,2.268s2.247,0.861,3.876,0.861c1.336,0,3.111-0.287,5.326-0.861
			c0.914-0.234,1.547-0.352,1.898-0.352c0.48,0,0.885,0.17,1.213,0.51s0.492,0.768,0.492,1.283c0,0.469-0.176,0.867-0.527,1.195
			c-0.469,0.434-1.611,0.847-3.428,1.239s-3.563,0.589-5.238,0.589c-2.883,0-5.188-0.814-6.917-2.443s-2.593-3.633-2.593-6.012
			c0-2.531,0.935-4.591,2.804-6.179s4.022-2.382,6.46-2.382c1.465,0,2.81,0.258,4.034,0.773s2.136,1.072,2.733,1.67
			c0.844,0.867,1.541,1.939,2.092,3.217c0.375,0.891,0.563,1.922,0.563,3.094V46.299z M93.814,42.696
			c-0.551-1.031-1.271-1.802-2.162-2.312s-1.951-0.765-3.182-0.765c-1.219,0-2.273,0.255-3.164,0.765s-1.617,1.28-2.18,2.312H93.814
			z"/>
		<path d="M109.477,40.094v7.225c0,0.773,0.158,1.283,0.475,1.529c0.492,0.387,1.371,0.58,2.637,0.58
			c1.84,0,3.539-0.393,5.098-1.178c0.598-0.305,1.066-0.457,1.406-0.457c0.469,0,0.876,0.176,1.222,0.527s0.519,0.779,0.519,1.283
			c0,0.469-0.188,0.873-0.563,1.213c-0.574,0.551-1.708,1.058-3.401,1.521s-3.12,0.694-4.28,0.694c-2.238,0-3.917-0.483-5.036-1.45
			s-1.679-2.153-1.679-3.56v-7.928h-1.301c-0.867,0-1.485-0.167-1.854-0.501s-0.554-0.771-0.554-1.31
			c0-0.527,0.185-0.958,0.554-1.292s0.987-0.501,1.854-0.501h1.301v-3.252c0-0.867,0.167-1.485,0.501-1.854s0.771-0.554,1.31-0.554
			c0.527,0,0.958,0.185,1.292,0.554s0.501,0.987,0.501,1.854v3.252h6.662c0.867,0,1.485,0.167,1.854,0.501s0.554,0.771,0.554,1.31
			c0,0.527-0.185,0.958-0.554,1.292s-0.987,0.501-1.854,0.501H109.477z"/>
		<path d="M128.25,29.653v7.682c0.75-0.445,1.509-0.776,2.276-0.993s1.544-0.325,2.329-0.325c1.242,0,2.35,0.211,3.322,0.633
			s1.778,1.087,2.417,1.995s0.958,2.054,0.958,3.437v6.768c0.914,0,1.512,0.088,1.793,0.264c0.563,0.363,0.844,0.879,0.844,1.547
			c0,0.527-0.182,0.958-0.545,1.292s-0.979,0.501-1.846,0.501h-4.113c-0.855,0-1.468-0.167-1.837-0.501s-0.554-0.771-0.554-1.31
			c0-0.656,0.281-1.166,0.844-1.529c0.293-0.188,0.891-0.275,1.793-0.264v-6.521c0-0.926-0.211-1.576-0.633-1.951
			c-0.551-0.504-1.365-0.756-2.443-0.756c-0.797,0-1.503,0.155-2.118,0.466s-1.444,0.981-2.487,2.013v6.75
			c0.926,0,1.523,0.088,1.793,0.264c0.574,0.363,0.861,0.879,0.861,1.547c0,0.527-0.185,0.958-0.554,1.292s-0.987,0.501-1.854,0.501
			H124.4c-0.867,0-1.485-0.167-1.854-0.501s-0.554-0.771-0.554-1.31c0-0.656,0.287-1.166,0.861-1.529
			c0.281-0.188,0.879-0.275,1.793-0.264V33.256h-0.615c-0.867,0-1.485-0.167-1.854-0.501s-0.554-0.771-0.554-1.31
			c0-0.527,0.185-0.958,0.554-1.292s0.987-0.501,1.854-0.501H128.25z"/>
		<path d="M161.438,39.075v3.955c0,2.344-0.677,4.588-2.03,6.732s-3.29,3.217-5.81,3.217c-1.453,0-2.681-0.319-3.683-0.958
			s-1.951-1.816-2.848-3.533s-1.345-3.536-1.345-5.458v-3.955c0-2.332,0.674-4.573,2.021-6.724s3.281-3.226,5.801-3.226
			c1.441,0,2.663,0.316,3.665,0.949s1.957,1.808,2.865,3.524S161.438,37.141,161.438,39.075z M157.816,39.075
			c0-1.957-0.545-3.668-1.635-5.133c-0.621-0.809-1.494-1.213-2.619-1.213c-1.09,0-1.98,0.445-2.672,1.336
			c-1.043,1.348-1.564,3.018-1.564,5.01v3.955c0,1.969,0.551,3.68,1.652,5.133c0.609,0.809,1.482,1.213,2.619,1.213
			c1.078,0,1.963-0.445,2.654-1.336c1.043-1.348,1.564-3.018,1.564-5.01V39.075z"/>
		<path d="M177.891,38.899c0,0.68-0.24,1.248-0.721,1.705s-1.143,0.686-1.986,0.686s-1.506-0.229-1.986-0.686
			s-0.721-1.025-0.721-1.705s0.24-1.248,0.721-1.705s1.143-0.686,1.986-0.686s1.506,0.229,1.986,0.686
			S177.891,38.219,177.891,38.899z M177.926,50.694c0,0.68-0.24,1.248-0.721,1.705s-1.143,0.686-1.986,0.686
			s-1.506-0.229-1.986-0.686s-0.721-1.025-0.721-1.705s0.24-1.248,0.721-1.705s1.143-0.686,1.986-0.686s1.506,0.229,1.986,0.686
			S177.926,50.014,177.926,50.694z"/>
		<path d="M193.412,48.848h7.893c0.434-0.352,0.844-0.527,1.23-0.527c0.551,0,0.987,0.182,1.31,0.545s0.483,0.984,0.483,1.863v1.723
			H187.91v-3.814c6.492-5.355,10.412-8.801,11.76-10.336c0.68-0.785,1.02-1.529,1.02-2.232c0-0.879-0.384-1.655-1.151-2.329
			s-1.79-1.011-3.067-1.011c-1.289,0-2.361,0.375-3.217,1.125c-0.445,0.398-0.803,0.99-1.072,1.775
			c-0.164,0.492-0.39,0.844-0.677,1.055S190.863,37,190.441,37c-0.492,0-0.917-0.176-1.274-0.527s-0.536-0.762-0.536-1.23
			c0-0.703,0.325-1.582,0.976-2.637s1.6-1.898,2.848-2.531s2.604-0.949,4.069-0.949c2.273,0,4.137,0.688,5.59,2.065
			s2.18,3.044,2.18,5.001c0,0.996-0.208,1.919-0.624,2.769s-1.415,2.024-2.997,3.524C199.43,43.668,197.01,45.79,193.412,48.848z"/>
		<path d="M226.248,39.075v3.955c0,2.344-0.677,4.588-2.03,6.732s-3.29,3.217-5.81,3.217c-1.453,0-2.681-0.319-3.683-0.958
			s-1.951-1.816-2.848-3.533s-1.345-3.536-1.345-5.458v-3.955c0-2.332,0.674-4.573,2.021-6.724s3.281-3.226,5.801-3.226
			c1.441,0,2.663,0.316,3.665,0.949s1.957,1.808,2.865,3.524S226.248,37.141,226.248,39.075z M222.627,39.075
			c0-1.957-0.545-3.668-1.635-5.133c-0.621-0.809-1.494-1.213-2.619-1.213c-1.09,0-1.98,0.445-2.672,1.336
			c-1.043,1.348-1.564,3.018-1.564,5.01v3.955c0,1.969,0.551,3.68,1.652,5.133c0.609,0.809,1.482,1.213,2.619,1.213
			c1.078,0,1.963-0.445,2.654-1.336c1.043-1.348,1.564-3.018,1.564-5.01V39.075z"/>
		<path d="M236.619,48.848h7.893c0.434-0.352,0.844-0.527,1.23-0.527c0.551,0,0.987,0.182,1.31,0.545s0.483,0.984,0.483,1.863v1.723
			h-16.418v-3.814c6.492-5.355,10.412-8.801,11.76-10.336c0.68-0.785,1.02-1.529,1.02-2.232c0-0.879-0.384-1.655-1.151-2.329
			s-1.79-1.011-3.067-1.011c-1.289,0-2.361,0.375-3.217,1.125c-0.445,0.398-0.803,0.99-1.072,1.775
			c-0.164,0.492-0.39,0.844-0.677,1.055S234.07,37,233.648,37c-0.492,0-0.917-0.176-1.274-0.527s-0.536-0.762-0.536-1.23
			c0-0.703,0.325-1.582,0.976-2.637s1.6-1.898,2.848-2.531s2.604-0.949,4.069-0.949c2.273,0,4.137,0.688,5.59,2.065
			s2.18,3.044,2.18,5.001c0,0.996-0.208,1.919-0.624,2.769s-1.415,2.024-2.997,3.524C242.637,43.668,240.217,45.79,236.619,48.848z"
			/>
		<path d="M269.455,39.075v3.955c0,2.344-0.677,4.588-2.03,6.732s-3.29,3.217-5.81,3.217c-1.453,0-2.681-0.319-3.683-0.958
			s-1.951-1.816-2.848-3.533s-1.345-3.536-1.345-5.458v-3.955c0-2.332,0.674-4.573,2.021-6.724s3.281-3.226,5.801-3.226
			c1.441,0,2.663,0.316,3.665,0.949s1.957,1.808,2.865,3.524S269.455,37.141,269.455,39.075z M265.834,39.075
			c0-1.957-0.545-3.668-1.635-5.133c-0.621-0.809-1.494-1.213-2.619-1.213c-1.09,0-1.98,0.445-2.672,1.336
			c-1.043,1.348-1.564,3.018-1.564,5.01v3.955c0,1.969,0.551,3.68,1.652,5.133c0.609,0.809,1.482,1.213,2.619,1.213
			c1.078,0,1.963-0.445,2.654-1.336c1.043-1.348,1.564-3.018,1.564-5.01V39.075z"/>
	</g>
	<circle fill="none" stroke="#000000" stroke-width="0.25" cx="14.173" cy="14.173" r="7.086"/>
	<path fill="none" stroke="#000000" stroke-width="0.25" stroke-linecap="round" stroke-linejoin="round" d="M138.435,137.734
		c8.688,0,15.742,7.054,15.742,15.742s-7.054,15.741-15.742,15.741s-15.742-7.053-15.742-15.741S129.746,137.734,138.435,137.734
		L138.435,137.734z"/>
</g>
</svg>
